<svg width="164" height="37" fill="none" xmlns="http://www.w3.org/2000/svg"><path fill-rule="evenodd" clip-rule="evenodd" d="M38.26 3.062c-.94-.472-2.104-.61-3.404-.374-.801.146-1.656.436-2.542.877-.851.426-1.666.959-2.437 1.577l3.13 1.574a13.718 13.718 0 012.437-1.577c.886-.442 1.74-.732 2.542-.878 1.3-.237 2.463-.097 3.404.375l-3.13-1.574z" fill="#F0A72E"/><mask id="a" maskUnits="userSpaceOnUse" x="0" y="0" width="31" height="35"><path fill-rule="evenodd" clip-rule="evenodd" d="M0 .61h30.303v33.625H0V.609z" fill="#fff"/></mask><g mask="url(#a)"><path fill-rule="evenodd" clip-rule="evenodd" d="M27.173 1.173C26.087.627 24.74.467 23.238.74c-.928.169-1.916.504-2.942 1.016-1.706.853-3.308 2.091-4.698 3.556-2.556 2.695-4.392 6.156-4.836 9.377-.767.15-1.59.434-2.433.855-1.47.735-2.851 1.801-4.048 3.062-2.565 2.7-4.29 6.291-4.281 9.417.008 2.28.937 3.884 2.437 4.638l3.13 1.574c-1.501-.755-2.43-2.36-2.437-4.639-.01-3.126 1.716-6.716 4.28-9.416 1.197-1.262 2.577-2.328 4.05-3.063a9.6 9.6 0 012.431-.855c.445-3.221 2.281-6.681 4.837-9.377 1.39-1.464 2.99-2.703 4.698-3.556 1.025-.512 2.013-.847 2.941-1.016 1.504-.274 2.848-.113 3.935.433l-3.13-1.573z" fill="#F0A72E"/></g><path fill-rule="evenodd" clip-rule="evenodd" d="M23.426 3.33c4.84-2.418 8.863-.885 9.581 3.386a13.718 13.718 0 012.437-1.577c4.614-2.304 8.368-.453 8.383 4.132.015 4.586-3.715 10.175-8.33 12.48L11.514 33.729c-4.62 2.308-8.369.454-8.384-4.133-.015-4.586 3.709-10.17 8.33-12.478a9.635 9.635 0 012.432-.855c.686-4.973 4.686-10.512 9.535-12.934z" fill="#FFCA00"/><path fill-rule="evenodd" clip-rule="evenodd" d="M62.705 5.314c-.94-.472-2.103-.61-3.403-.374-.803.146-1.656.436-2.543.877-.85.425-1.665.959-2.437 1.577l3.13 1.574A13.645 13.645 0 0159.89 7.39c.885-.443 1.74-.732 2.54-.878 1.302-.237 2.464-.097 3.404.375l-3.129-1.574zM51.614 3.42c-1.086-.546-2.432-.707-3.934-.434-.929.17-1.915.504-2.939 1.015-1.7.85-3.298 2.085-4.685 3.547-2.558 2.698-4.397 6.165-4.842 9.39a9.666 9.666 0 00-2.44.858c-1.469.733-2.848 1.8-4.045 3.06-2.564 2.7-4.294 6.293-4.284 9.418.008 2.28.939 3.882 2.438 4.637l3.13 1.572c-1.5-.753-2.431-2.356-2.439-4.635-.01-3.126 1.72-6.718 4.284-9.418 1.198-1.261 2.577-2.327 4.045-3.06a9.699 9.699 0 012.44-.86c.446-3.225 2.285-6.69 4.843-9.388 1.387-1.463 2.984-2.698 4.685-3.548 1.023-.511 2.01-.846 2.938-1.014 1.503-.274 2.848-.113 3.935.433l-3.13-1.573z" fill="#D43E3E"/><path fill-rule="evenodd" clip-rule="evenodd" d="M47.87 5.574c4.842-2.417 8.865-.878 9.582 3.394A13.693 13.693 0 0159.89 7.39c4.614-2.304 8.368-.454 8.383 4.132.015 4.586-3.715 10.175-8.329 12.48L35.958 35.98c-4.613 2.304-8.368.453-8.383-4.133-.015-4.586 3.715-10.175 8.329-12.48a9.75 9.75 0 012.44-.858c.685-4.971 4.686-10.518 9.527-12.936z" fill="#FA7564"/><path d="M81.94 26V12.92h2.62l2.32 6.4c.146.413.286.84.42 1.28.133.427.273.853.42 1.28h.08c.146-.427.28-.853.4-1.28.133-.44.273-.867.42-1.28l2.26-6.4h2.64V26h-2.14v-5.98c0-.307.006-.64.02-1l.08-1.08c.026-.373.06-.733.1-1.08.04-.36.073-.693.1-1h-.08l-1.06 3.04-2.14 5.88h-1.38l-2.16-5.88-1.04-3.04h-.08c.026.307.053.64.08 1 .04.347.073.707.1 1.08.04.36.066.72.08 1.08.026.36.04.693.04 1V26h-2.1zm16.732.24c-.866 0-1.566-.26-2.1-.78-.533-.533-.8-1.233-.8-2.1 0-.52.107-.98.32-1.38.227-.413.574-.767 1.04-1.06.48-.293 1.08-.54 1.8-.74.734-.2 1.607-.353 2.62-.46a3.091 3.091 0 00-.12-.72 1.412 1.412 0 00-.3-.62 1.211 1.211 0 00-.54-.42c-.226-.107-.506-.16-.84-.16-.48 0-.953.093-1.42.28-.453.187-.9.413-1.34.68l-.84-1.54a9.832 9.832 0 011.84-.9 6.252 6.252 0 012.2-.38c1.227 0 2.14.367 2.74 1.1.614.72.92 1.767.92 3.14V26h-1.9l-.16-1.08h-.08a7.08 7.08 0 01-1.42.94 3.493 3.493 0 01-1.62.38zm.74-1.8c.4 0 .76-.093 1.08-.28a5.631 5.631 0 001.06-.8v-2.2a10.52 10.52 0 00-1.68.32c-.453.133-.82.287-1.1.46-.28.16-.48.347-.6.56-.12.213-.18.44-.18.68 0 .44.134.76.4.96.267.2.607.3 1.02.3zm6.843 1.56v-9.82h1.9l.16 1.74h.08c.347-.64.767-1.127 1.26-1.46.493-.347 1-.52 1.52-.52.467 0 .84.067 1.12.2l-.4 2a4.179 4.179 0 00-.48-.12 3.084 3.084 0 00-.54-.04c-.387 0-.793.153-1.22.46-.427.293-.793.813-1.1 1.56v6h-2.3zm10.571.24c-.573 0-1.06-.087-1.46-.26a2.6 2.6 0 01-.96-.72c-.24-.32-.42-.693-.54-1.12a6.182 6.182 0 01-.16-1.46V18h-1.4v-1.72l1.52-.1.28-2.68h1.92v2.68h2.5V18h-2.5v4.68c0 1.147.46 1.72 1.38 1.72.173 0 .347-.02.52-.06.187-.04.353-.093.5-.16l.4 1.7a6.549 6.549 0 01-.92.24c-.333.08-.693.12-1.08.12zm5.367 0c-.866 0-1.566-.26-2.1-.78-.533-.533-.8-1.233-.8-2.1 0-.52.107-.98.32-1.38.227-.413.574-.767 1.04-1.06.48-.293 1.08-.54 1.8-.74.734-.2 1.607-.353 2.62-.46a3.091 3.091 0 00-.12-.72 1.412 1.412 0 00-.3-.62 1.211 1.211 0 00-.54-.42c-.226-.107-.506-.16-.84-.16-.48 0-.953.093-1.42.28a9.76 9.76 0 00-1.34.68l-.84-1.54a9.844 9.844 0 011.84-.9 6.255 6.255 0 012.2-.38c1.227 0 2.14.367 2.74 1.1.614.72.92 1.767.92 3.14V26h-1.9l-.16-1.08h-.08a7.08 7.08 0 01-1.42.94 3.492 3.492 0 01-1.62.38zm.74-1.8c.4 0 .76-.093 1.08-.28a5.631 5.631 0 001.06-.8v-2.2c-.666.08-1.226.187-1.68.32-.453.133-.82.287-1.1.46-.28.16-.48.347-.6.56-.12.213-.18.44-.18.68 0 .44.134.76.4.96.267.2.607.3 1.02.3zm11.943 1.8c-.76 0-1.447-.107-2.06-.32-.6-.227-1.12-.58-1.56-1.06-.427-.48-.76-1.093-1-1.84-.227-.76-.34-1.68-.34-2.76v-7.34h2.32v7.52c0 .707.06 1.307.18 1.8.133.48.313.867.54 1.16.24.293.52.507.84.64.32.12.68.18 1.08.18s.767-.06 1.1-.18c.333-.133.62-.347.86-.64.24-.293.427-.68.56-1.16.133-.493.2-1.093.2-1.8v-7.52h2.22v7.34c0 1.08-.113 2-.34 2.76-.227.747-.56 1.36-1 1.84-.427.48-.947.833-1.56 1.06-.6.213-1.28.32-2.04.32zm7.856-.24V12.92h4.12c.72 0 1.386.067 2 .2.626.133 1.166.36 1.62.68.453.32.806.74 1.06 1.26.253.507.38 1.14.38 1.9 0 .72-.127 1.347-.38 1.88a3.74 3.74 0 01-1.06 1.34c-.44.347-.967.607-1.58.78-.6.16-1.254.24-1.96.24h-1.88V26h-2.32zm2.32-6.66h1.7c1.92 0 2.88-.793 2.88-2.38 0-.827-.254-1.393-.76-1.7-.494-.32-1.227-.48-2.2-.48h-1.62v4.56z" fill="#fff"/></svg>