<svg width="235" height="159" fill="none" xmlns="http://www.w3.org/2000/svg"><path opacity=".1" fill-rule="evenodd" clip-rule="evenodd" d="M213.52 90.114c-2.913-38.691-71.17-69.774-143.876-67.626-72.707 2.148.463 46.5-44.432 46.563-44.896.063 24.056 68.035 102.138 55.663 78.082-12.373 89.083 4.091 86.17-34.6z" fill="#02ECF1"/><path fill-rule="evenodd" clip-rule="evenodd" d="M131.015 107.956c-.024.108-.063.218-.095.325.034-.114.072-.227.096-.343l-.001.018zm-.246.794c-.043.105-.101.21-.152.312.053-.108.112-.217.157-.328a.098.098 0 00-.005.016zm-.406.79c-.06.096-.133.19-.199.285.07-.097.144-.197.205-.299-.002.006-.003.01-.006.014zm-.604.815c-.062.073-.132.145-.199.216.07-.074.142-.149.205-.225l-.006.009zm-.539.58c-.126.12-.276.237-.416.355.144-.121.296-.241.425-.365l-.009.01zm-1.192.951c-.057.039-.112.079-.17.12.06-.042.118-.085.177-.125l-.007.005zm3.047-4.398c.22-2.257-1.364-4.553-4.787-6.276-6.409-3.227-16.76-3.227-23.123-.004-3.17 1.607-4.75 3.712-4.747 5.819 0-.007-.003-.014-.003-.02l-.009 2.915c-.006 2.128 1.604 4.261 4.831 5.886.385.192.786.374 1.198.546.14.055.287.108.431.162.242.094.48.192.729.277.028.01.06.017.088.026.569.193 1.157.364 1.76.518.046.013.09.029.137.041.134.032.275.056.409.087.34.078.681.153 1.028.219.089.018.177.041.268.058.133.023.271.04.405.06.288.049.578.094.87.134.117.016.229.037.345.052.128.016.258.023.385.038.27.029.54.055.813.079.132.011.26.029.393.039.122.007.246.008.369.017.273.016.546.027.821.038.14.005.279.017.42.019.112.003.223-.002.335-.001.299.004.597.001.895-.005.149-.001.296.004.445-.001.086-.002.172-.012.261-.016.369-.014.737-.037 1.105-.062.148-.012.298-.015.447-.027.046-.004.091-.011.137-.015a30.112 30.112 0 001.855-.228c.031-.004.063-.006.094-.011.178-.027.35-.067.526-.099.303-.053.606-.104.903-.168.216-.045.427-.098.641-.15.283-.068.566-.134.842-.21.06-.016.123-.029.183-.044.099-.029.19-.068.289-.096.439-.13.868-.272 1.286-.426.154-.056.31-.112.461-.171a19.204 19.204 0 001.543-.68l.199-.103c.148-.077.274-.162.413-.24.203-.114.409-.228.597-.349.162-.102.306-.209.457-.314.171-.12.346-.238.502-.362.032-.025.071-.047.101-.073.21-.17.404-.342.588-.516.038-.037.07-.072.106-.108.109-.107.221-.216.32-.325.043-.049.072-.099.113-.147.14-.164.264-.329.383-.495.05-.072.116-.139.162-.211.022-.036.035-.072.058-.108.091-.147.165-.297.239-.446.044-.086.102-.171.138-.257.013-.029.017-.058.029-.086.059-.142.099-.288.141-.432.028-.095.072-.188.095-.284.005-.025.003-.051.01-.076.032-.152.044-.303.059-.454.01-.097.034-.193.038-.288l.002-.119v-.006l.009-2.917c0 .132-.025.264-.038.396z" fill="#250F8A"/><mask id="a" maskUnits="userSpaceOnUse" x="98" y="106" width="33" height="12"><path fill-rule="evenodd" clip-rule="evenodd" d="M98.228 109.383c-.007 2.143 1.575 4.29 4.742 5.926 6.289 3.249 16.453 3.249 22.7 0 3.103-1.613 4.657-3.725 4.663-5.839l.009-2.938c-.007 2.115-1.56 4.228-4.663 5.839-6.248 3.248-16.412 3.248-22.699 0-3.17-1.634-4.75-3.782-4.744-5.924" fill="#fff"/></mask><g mask="url(#a)"><path fill-rule="evenodd" clip-rule="evenodd" d="M130.342 106.536l-.009 2.938-.002.125.01-2.936.001-.127z" fill="#872D24"/></g><mask id="b" maskUnits="userSpaceOnUse" x="98" y="106" width="33" height="12"><path fill-rule="evenodd" clip-rule="evenodd" d="M98.228 109.383c-.007 2.143 1.575 4.29 4.742 5.926 6.289 3.249 16.453 3.249 22.7 0 3.103-1.613 4.657-3.725 4.663-5.839l.009-2.938c-.007 2.115-1.56 4.228-4.663 5.839-6.248 3.248-16.412 3.248-22.699 0-3.17-1.634-4.75-3.782-4.744-5.924" fill="#fff"/></mask><g mask="url(#b)"><path fill-rule="evenodd" clip-rule="evenodd" d="M130.341 106.659l-.01 2.937c-.009.275-.044.55-.105.824l.009-2.938c.061-.273.096-.548.106-.823z" fill="#250F8A"/></g><path fill-rule="evenodd" clip-rule="evenodd" d="M130.235 107.482l-.009 2.939c-.061.27-.148.54-.26.807l.01-2.938c.111-.266.198-.535.259-.808z" fill="#250F8A"/><path fill-rule="evenodd" clip-rule="evenodd" d="M129.976 108.291l-.01 2.937a5.502 5.502 0 01-.427.817l.009-2.938c.169-.269.312-.542.428-.816z" fill="#250F8A"/><path fill-rule="evenodd" clip-rule="evenodd" d="M129.548 109.107l-.009 2.938a6.93 6.93 0 01-.646.858l.009-2.937a6.84 6.84 0 00.646-.859zM128.902 109.966l-.01 2.936a8.685 8.685 0 01-.995.958l.01-2.938a8.84 8.84 0 00.995-.956z" fill="#250F8A"/><path fill-rule="evenodd" clip-rule="evenodd" d="M127.906 110.922l-.008 2.938c-.576.475-1.253.926-2.033 1.347l.01-2.938a12.405 12.405 0 002.031-1.347zM125.874 112.269l-.009 2.937-.196.104a19.433 19.433 0 01-3.514 1.383l.008-2.937a19.316 19.316 0 003.515-1.385c.068-.034.131-.068.196-.102zM122.163 113.756l-.009 2.937c-.974.282-1.993.508-3.039.676l.008-2.937a25.847 25.847 0 003.04-.676z" fill="#250F8A"/><path fill-rule="evenodd" clip-rule="evenodd" d="M119.124 114.433l-.009 2.936c-.673.108-1.357.194-2.047.256l.008-2.938c.691-.06 1.376-.146 2.048-.254zM117.076 114.686l-.008 2.939c-.591.051-1.185.087-1.78.105l.008-2.936c.597-.019 1.19-.055 1.78-.108z" fill="#250F8A"/><path fill-rule="evenodd" clip-rule="evenodd" d="M115.296 114.794l-.009 2.936c-.548.018-1.097.02-1.645.008l.009-2.937a31.11 31.11 0 001.645-.007z" fill="#250F8A"/><path fill-rule="evenodd" clip-rule="evenodd" d="M113.652 114.8l-.01 2.937a31.983 31.983 0 01-1.581-.074l.01-2.938c.524.038 1.052.063 1.581.075z" fill="#250F8A"/><path fill-rule="evenodd" clip-rule="evenodd" d="M112.071 114.725l-.01 2.938a31 31 0 01-1.561-.157l.009-2.938c.517.066 1.038.118 1.562.157z" fill="#250F8A"/><path fill-rule="evenodd" clip-rule="evenodd" d="M110.51 114.568l-.009 2.937a28.232 28.232 0 01-1.592-.247l.008-2.937c.525.097 1.055.179 1.593.247z" fill="#250F8A"/><path fill-rule="evenodd" clip-rule="evenodd" d="M108.918 114.321l-.01 2.937a26.236 26.236 0 01-1.673-.367l.009-2.937c.548.139 1.106.26 1.674.367zM107.244 113.954l-.01 2.938a23.236 23.236 0 01-1.948-.589l.008-2.937c.629.221 1.28.418 1.95.588z" fill="#250F8A"/><path fill-rule="evenodd" clip-rule="evenodd" d="M105.295 113.365l-.01 2.937a18.549 18.549 0 01-2.315-.992c-3.168-1.636-4.749-3.783-4.743-5.928l.009-2.936c-.007 2.143 1.575 4.29 4.743 5.925.725.374 1.5.707 2.316.994z" fill="#250F8A"/><path fill-rule="evenodd" clip-rule="evenodd" d="M121.677 110.819h7.07c3.033-3.095 2.019-6.967-3.055-9.552-3.5-1.783-8.188-2.578-12.743-2.39l-6.122 4.376 14.85 7.566z" fill="#02ECF1"/><path fill-rule="evenodd" clip-rule="evenodd" d="M121.677 110.819l-14.85-7.566 6.122-4.375c-3.687.151-7.286.943-10.098 2.385-6.284 3.224-6.25 8.451.082 11.678 6.324 3.223 16.549 3.223 22.833 0 1.246-.638 2.232-1.358 2.981-2.122h-7.07z" fill="#02ECF1"/><path fill-rule="evenodd" clip-rule="evenodd" d="M121.783 77.777l2.142-1.1-.106 33.043-2.141 1.099.105-33.042z" fill="#4F34CE"/><path fill-rule="evenodd" clip-rule="evenodd" d="M106.934 70.208l2.141-1.099 14.851 7.568-2.143 1.1-14.849-7.57z" fill="#263543"/><path fill-rule="evenodd" clip-rule="evenodd" d="M121.783 77.777l-.105 33.042-14.851-7.566.106-33.045 14.85 7.57z" fill="#250F8A"/><path fill-rule="evenodd" clip-rule="evenodd" d="M66.649 17.085c.004 0 .009 0 .013-.002-.09.018-.165.055-.248.08.079-.023.15-.061.235-.078zm1.364.1l.005.002c-.082-.024-.155-.029-.236-.045.079.016.152.021.231.044zm-.706-.132h.012c-.094-.006-.177.01-.266.01.085 0 .164-.016.254-.01zm96.054 101.584c.026-.054.044-.121.066-.178-.035.089-.058.193-.102.274.016-.028.022-.066.036-.096zm-.19.309c-.066.092-.123.194-.2.271.077-.077.134-.179.2-.271zm4.174-51.253a5.108 5.108 0 00-.049-.436c-.004-.026-.011-.052-.015-.079a.675.675 0 01-.013-.065c-.014-.07-.025-.14-.041-.21a4.838 4.838 0 00-.083-.315c-.025-.094-.056-.186-.087-.28l-.001-.004-.004-.01a6.81 6.81 0 00-.332-.8l-.013-.025-.009-.018a8.452 8.452 0 00-.411-.73l-.041-.06-.025-.036c-.036-.055-.072-.112-.11-.166a8.065 8.065 0 00-.426-.56l-.01-.011a6.928 6.928 0 00-.638-.682l-.01-.007c-.159-.15-.327-.28-.496-.412-.077-.064-.151-.133-.231-.192a5.935 5.935 0 00-.782-.48L72.4 15.68a4.893 4.893 0 00-.63-.27c-.04-.013-.078-.021-.118-.034l-.07-.022c-.045-.012-.09-.03-.135-.04a4.14 4.14 0 00-.518-.09l-.03-.002h-.022c-.058-.004-.115-.008-.172-.008-.07-.001-.14 0-.209.005-.065.003-.133.01-.197.021-.018.002-.035.007-.053.01l-.027.006c-.036.007-.073.011-.108.02a2.465 2.465 0 00-.36.12l-.091.045-1.784.916-1.785.916c.002-.002.004-.002.007-.003-.694.352-1.126 1.108-1.13 2.183l-.152 47.561c-.005 1.533.867 3.292 2.131 4.575.515.524 1.09.978 1.706 1.291l91.118 46.437c.56.285 1.089.427 1.57.453.561.031 1.041-.118 1.422-.402-.084.062-.16.137-.254.185.178-.093.358-.183.536-.275l.178-.09 1.428-.734 1.25-.641.179-.092c.69-.354 1.118-1.107 1.121-2.179l.153-47.562c0-.094-.004-.19-.009-.287z" fill="#250F8A"/><mask id="c" maskUnits="userSpaceOnUse" x="65" y="15" width="8" height="3"><path fill-rule="evenodd" clip-rule="evenodd" d="M69.422 15.436c-.602.31-1.204.617-1.806.924-.602.306-1.202.614-1.806.92.707-.361 1.687-.31 2.771.241l3.611-1.843c-.63-.32-1.224-.472-1.75-.472-.38 0-.724.079-1.02.23z" fill="#fff"/></mask><g mask="url(#c)"><path fill-rule="evenodd" clip-rule="evenodd" d="M65.81 17.28l3.61-1.844c.031-.014.062-.03.094-.042l-3.611 1.843c-.032.015-.063.028-.092.044z" fill="#1A242E"/></g><mask id="d" maskUnits="userSpaceOnUse" x="65" y="15" width="8" height="3"><path fill-rule="evenodd" clip-rule="evenodd" d="M69.422 15.436c-.602.31-1.204.617-1.806.924-.602.306-1.202.614-1.806.92.707-.361 1.687-.31 2.771.241l3.611-1.843c-.63-.32-1.224-.472-1.75-.472-.38 0-.724.079-1.02.23z" fill="#fff"/></mask><g mask="url(#d)"><path fill-rule="evenodd" clip-rule="evenodd" d="M65.902 17.242l3.611-1.843c.058-.028.118-.05.18-.072l-3.612 1.847c-.06.02-.12.043-.179.068z" fill="#1B252F"/></g><mask id="e" maskUnits="userSpaceOnUse" x="65" y="15" width="8" height="3"><path fill-rule="evenodd" clip-rule="evenodd" d="M69.422 15.436c-.602.31-1.204.617-1.806.924-.602.306-1.202.614-1.806.92.707-.361 1.687-.31 2.771.241l3.611-1.843c-.63-.32-1.224-.472-1.75-.472-.38 0-.724.079-1.02.23z" fill="#fff"/></mask><g mask="url(#e)"><path fill-rule="evenodd" clip-rule="evenodd" d="M66.082 17.17l3.61-1.844c.06-.021.122-.038.185-.052l-3.611 1.844a1.85 1.85 0 00-.184.053z" fill="#1C2631"/></g><mask id="f" maskUnits="userSpaceOnUse" x="65" y="15" width="8" height="3"><path fill-rule="evenodd" clip-rule="evenodd" d="M69.422 15.436c-.602.31-1.204.617-1.806.924-.602.306-1.202.614-1.806.92.707-.361 1.687-.31 2.771.241l3.611-1.843c-.63-.32-1.224-.472-1.75-.472-.38 0-.724.079-1.02.23z" fill="#fff"/></mask><g mask="url(#f)"><path fill-rule="evenodd" clip-rule="evenodd" d="M66.266 17.117l3.61-1.845c.063-.016.127-.029.192-.037l-3.611 1.844c-.065.01-.129.022-.191.038z" fill="#1D2732"/></g><mask id="g" maskUnits="userSpaceOnUse" x="65" y="15" width="8" height="3"><path fill-rule="evenodd" clip-rule="evenodd" d="M69.422 15.436c-.602.31-1.204.617-1.806.924-.602.306-1.202.614-1.806.92.707-.361 1.687-.31 2.771.241l3.611-1.843c-.63-.32-1.224-.472-1.75-.472-.38 0-.724.079-1.02.23z" fill="#fff"/></mask><g mask="url(#g)"><path fill-rule="evenodd" clip-rule="evenodd" d="M66.456 17.078l3.612-1.844c.064-.01.133-.017.199-.022l-3.61 1.845a2.496 2.496 0 00-.2.021z" fill="#1D2934"/></g><mask id="h" maskUnits="userSpaceOnUse" x="65" y="15" width="8" height="3"><path fill-rule="evenodd" clip-rule="evenodd" d="M69.422 15.436c-.602.31-1.204.617-1.806.924-.602.306-1.202.614-1.806.92.707-.361 1.687-.31 2.771.241l3.611-1.843c-.63-.32-1.224-.472-1.75-.472-.38 0-.724.079-1.02.23z" fill="#fff"/></mask><g mask="url(#h)"><path fill-rule="evenodd" clip-rule="evenodd" d="M66.657 17.057l3.61-1.844c.07-.006.14-.007.211-.007l-3.61 1.845a2.82 2.82 0 00-.21.006z" fill="#1E2A35"/></g><mask id="i" maskUnits="userSpaceOnUse" x="65" y="15" width="8" height="3"><path fill-rule="evenodd" clip-rule="evenodd" d="M69.422 15.436c-.602.31-1.204.617-1.806.924-.602.306-1.202.614-1.806.92.707-.361 1.687-.31 2.771.241l3.611-1.843c-.63-.32-1.224-.472-1.75-.472-.38 0-.724.079-1.02.23z" fill="#fff"/></mask><g mask="url(#i)"><path fill-rule="evenodd" clip-rule="evenodd" d="M66.868 17.05l3.61-1.844c.074.002.15.007.226.012l-3.611 1.845a3.346 3.346 0 00-.225-.012z" fill="#1F2B37"/></g><mask id="j" maskUnits="userSpaceOnUse" x="65" y="15" width="8" height="3"><path fill-rule="evenodd" clip-rule="evenodd" d="M69.422 15.436c-.602.31-1.204.617-1.806.924-.602.306-1.202.614-1.806.92.707-.361 1.687-.31 2.771.241l3.611-1.843c-.63-.32-1.224-.472-1.75-.472-.38 0-.724.079-1.02.23z" fill="#fff"/></mask><g mask="url(#j)"><path fill-rule="evenodd" clip-rule="evenodd" d="M67.093 17.064l3.61-1.845c.082.008.164.018.247.031l-3.612 1.845a4.106 4.106 0 00-.245-.031z" fill="#202C38"/></g><mask id="k" maskUnits="userSpaceOnUse" x="65" y="15" width="8" height="3"><path fill-rule="evenodd" clip-rule="evenodd" d="M69.422 15.436c-.602.31-1.204.617-1.806.924-.602.306-1.202.614-1.806.92.707-.361 1.687-.31 2.771.241l3.611-1.843c-.63-.32-1.224-.472-1.75-.472-.38 0-.724.079-1.02.23z" fill="#fff"/></mask><g mask="url(#k)"><path fill-rule="evenodd" clip-rule="evenodd" d="M67.34 17.096l3.61-1.844c.092.015.184.035.278.058l-3.61 1.845c-.095-.024-.188-.041-.279-.059z" fill="#212D3A"/></g><path fill-rule="evenodd" clip-rule="evenodd" d="M69.422 15.436c-.602.31-1.204.617-1.806.924-.602.306-1.202.614-1.806.92.707-.361 1.687-.31 2.771.241l3.611-1.843c-.63-.32-1.224-.472-1.75-.472-.38 0-.724.079-1.02.23z" fill="#250F8A"/><mask id="l" maskUnits="userSpaceOnUse" x="65" y="15" width="8" height="3"><path fill-rule="evenodd" clip-rule="evenodd" d="M69.422 15.436c-.602.31-1.204.617-1.806.924-.602.306-1.202.614-1.806.92.707-.361 1.687-.31 2.771.241l3.611-1.843c-.63-.32-1.224-.472-1.75-.472-.38 0-.724.079-1.02.23z" fill="#fff"/></mask><g mask="url(#l)"><path fill-rule="evenodd" clip-rule="evenodd" d="M67.617 17.157l3.611-1.844c.108.027.216.06.327.096l-3.612 1.846c-.11-.036-.219-.07-.326-.098z" fill="#250F8A"/></g><path fill-rule="evenodd" clip-rule="evenodd" d="M67.944 17.25l3.61-1.844c.147.05.296.109.448.18l-3.611 1.845c-.151-.07-.3-.13-.447-.18z" fill="#250F8A"/><path fill-rule="evenodd" clip-rule="evenodd" d="M68.391 17.43l3.61-1.844c.065.028.126.058.192.092l-3.612 1.843c-.064-.03-.126-.064-.19-.09z" fill="#250F8A"/><mask id="m" maskUnits="userSpaceOnUse" x="162" y="115" width="6" height="5"><path fill-rule="evenodd" clip-rule="evenodd" d="M163.398 117.225c-.001 1.133-.456 1.93-1.19 2.306a100.871 100.871 0 00.759-.389c.506-.257 1.011-.516 1.517-.775.442-.225.885-.45 1.326-.676l.191-.097c.733-.376 1.187-1.172 1.19-2.307" fill="#fff"/></mask><g mask="url(#m)"><path fill-rule="evenodd" clip-rule="evenodd" d="M163.399 117.225l3.792-1.938c-.002 1.135-.458 1.932-1.19 2.307l-3.792 1.936c.732-.375 1.188-1.172 1.19-2.305z" fill="#250F8A"/></g><path fill-rule="evenodd" clip-rule="evenodd" d="M163.785 69.655l3.568-1.826-.151 47.435-3.57 1.827.153-47.436zM68.87 17.495l3.568-1.825L163.52 61.98l-3.57 1.826-91.08-46.312z" fill="#250F8A"/><mask id="n" maskUnits="userSpaceOnUse" x="160" y="61" width="8" height="9"><path fill-rule="evenodd" clip-rule="evenodd" d="M160.13 63.525c2.076 1.092 3.748 3.732 3.742 5.907l3.482-1.844c.006-2.175-1.666-4.815-3.742-5.907" fill="#fff"/></mask><g mask="url(#n)"><path fill-rule="evenodd" clip-rule="evenodd" d="M160.13 63.525l3.482-1.845a6.37 6.37 0 011.482 1.099l-3.482 1.844a6.422 6.422 0 00-1.482-1.098z" fill="#23313E"/></g><mask id="o" maskUnits="userSpaceOnUse" x="160" y="61" width="8" height="9"><path fill-rule="evenodd" clip-rule="evenodd" d="M160.13 63.525c2.076 1.092 3.748 3.732 3.742 5.907l3.482-1.844c.006-2.175-1.666-4.815-3.742-5.907" fill="#fff"/></mask><g mask="url(#o)"><path fill-rule="evenodd" clip-rule="evenodd" d="M161.612 64.623l3.481-1.844c.125.12.246.247.363.379l-3.482 1.844a7.107 7.107 0 00-.362-.38z" fill="#22303D"/></g><mask id="p" maskUnits="userSpaceOnUse" x="160" y="61" width="8" height="9"><path fill-rule="evenodd" clip-rule="evenodd" d="M160.13 63.525c2.076 1.092 3.748 3.732 3.742 5.907l3.482-1.844c.006-2.175-1.666-4.815-3.742-5.907" fill="#fff"/></mask><g mask="url(#p)"><path fill-rule="evenodd" clip-rule="evenodd" d="M161.974 65.002l3.481-1.844c.095.103.184.21.272.319l-3.482 1.845a7.439 7.439 0 00-.271-.32z" fill="#222E3B"/></g><mask id="q" maskUnits="userSpaceOnUse" x="160" y="61" width="8" height="9"><path fill-rule="evenodd" clip-rule="evenodd" d="M160.13 63.525c2.076 1.092 3.748 3.732 3.742 5.907l3.482-1.844c.006-2.175-1.666-4.815-3.742-5.907" fill="#fff"/></mask><g mask="url(#q)"><path fill-rule="evenodd" clip-rule="evenodd" d="M162.244 65.322l3.483-1.845c.076.095.15.19.221.29l-3.481 1.844a6.626 6.626 0 00-.223-.29z" fill="#212D3A"/></g><mask id="r" maskUnits="userSpaceOnUse" x="160" y="61" width="8" height="9"><path fill-rule="evenodd" clip-rule="evenodd" d="M160.13 63.525c2.076 1.092 3.748 3.732 3.742 5.907l3.482-1.844c.006-2.175-1.666-4.815-3.742-5.907" fill="#fff"/></mask><g mask="url(#r)"><path fill-rule="evenodd" clip-rule="evenodd" d="M162.467 65.611l3.482-1.844c.066.09.13.181.192.272l-3.481 1.846a10.2 10.2 0 00-.193-.274z" fill="#202C38"/></g><mask id="s" maskUnits="userSpaceOnUse" x="160" y="61" width="8" height="9"><path fill-rule="evenodd" clip-rule="evenodd" d="M160.13 63.525c2.076 1.092 3.748 3.732 3.742 5.907l3.482-1.844c.006-2.175-1.666-4.815-3.742-5.907" fill="#fff"/></mask><g mask="url(#s)"><path fill-rule="evenodd" clip-rule="evenodd" d="M162.659 65.884l3.481-1.844c.061.088.118.176.173.266l-3.483 1.845a7.51 7.51 0 00-.171-.267z" fill="#1F2B37"/></g><mask id="t" maskUnits="userSpaceOnUse" x="160" y="61" width="8" height="9"><path fill-rule="evenodd" clip-rule="evenodd" d="M160.13 63.525c2.076 1.092 3.748 3.732 3.742 5.907l3.482-1.844c.006-2.175-1.666-4.815-3.742-5.907" fill="#fff"/></mask><g mask="url(#t)"><path fill-rule="evenodd" clip-rule="evenodd" d="M162.83 66.15l3.483-1.844c.053.086.104.173.154.261l-3.482 1.844a5.638 5.638 0 00-.155-.26z" fill="#1E2A35"/></g><mask id="u" maskUnits="userSpaceOnUse" x="160" y="61" width="8" height="9"><path fill-rule="evenodd" clip-rule="evenodd" d="M160.13 63.525c2.076 1.092 3.748 3.732 3.742 5.907l3.482-1.844c.006-2.175-1.666-4.815-3.742-5.907" fill="#fff"/></mask><g mask="url(#u)"><path fill-rule="evenodd" clip-rule="evenodd" d="M162.985 66.41l3.482-1.843c.048.085.095.17.14.257l-3.481 1.846a7.046 7.046 0 00-.141-.26z" fill="#1D2934"/></g><mask id="v" maskUnits="userSpaceOnUse" x="160" y="61" width="8" height="9"><path fill-rule="evenodd" clip-rule="evenodd" d="M160.13 63.525c2.076 1.092 3.748 3.732 3.742 5.907l3.482-1.844c.006-2.175-1.666-4.815-3.742-5.907" fill="#fff"/></mask><g mask="url(#v)"><path fill-rule="evenodd" clip-rule="evenodd" d="M163.125 66.67l3.481-1.846c.047.086.089.173.13.26l-3.483 1.843a7.717 7.717 0 00-.128-.258z" fill="#1D2732"/></g><mask id="w" maskUnits="userSpaceOnUse" x="160" y="61" width="8" height="9"><path fill-rule="evenodd" clip-rule="evenodd" d="M160.13 63.525c2.076 1.092 3.748 3.732 3.742 5.907l3.482-1.844c.006-2.175-1.666-4.815-3.742-5.907" fill="#fff"/></mask><g mask="url(#w)"><path fill-rule="evenodd" clip-rule="evenodd" d="M163.254 66.927l3.481-1.844c.042.087.082.175.119.263l-3.483 1.846a5.551 5.551 0 00-.117-.264z" fill="#1C2631"/></g><mask id="x" maskUnits="userSpaceOnUse" x="160" y="61" width="8" height="9"><path fill-rule="evenodd" clip-rule="evenodd" d="M160.13 63.525c2.076 1.092 3.748 3.732 3.742 5.907l3.482-1.844c.006-2.175-1.666-4.815-3.742-5.907" fill="#fff"/></mask><g mask="url(#x)"><path fill-rule="evenodd" clip-rule="evenodd" d="M163.371 67.192l3.483-1.846c.038.09.073.178.108.268l-3.482 1.845a4.38 4.38 0 00-.109-.267z" fill="#1B252F"/></g><mask id="y" maskUnits="userSpaceOnUse" x="160" y="61" width="8" height="9"><path fill-rule="evenodd" clip-rule="evenodd" d="M160.13 63.525c2.076 1.092 3.748 3.732 3.742 5.907l3.482-1.844c.006-2.175-1.666-4.815-3.742-5.907" fill="#fff"/></mask><g mask="url(#y)"><path fill-rule="evenodd" clip-rule="evenodd" d="M163.48 67.459l3.482-1.845c.035.092.068.184.098.276l-3.483 1.846a4.51 4.51 0 00-.097-.277z" fill="#1A242E"/></g><mask id="z" maskUnits="userSpaceOnUse" x="160" y="61" width="8" height="9"><path fill-rule="evenodd" clip-rule="evenodd" d="M160.13 63.525c2.076 1.092 3.748 3.732 3.742 5.907l3.482-1.844c.006-2.175-1.666-4.815-3.742-5.907" fill="#fff"/></mask><g mask="url(#z)"><path fill-rule="evenodd" clip-rule="evenodd" d="M163.578 67.735l3.482-1.844c.033.096.063.195.09.293l-3.481 1.844a6.584 6.584 0 00-.091-.293z" fill="#19232C"/></g><mask id="A" maskUnits="userSpaceOnUse" x="160" y="61" width="8" height="9"><path fill-rule="evenodd" clip-rule="evenodd" d="M160.13 63.525c2.076 1.092 3.748 3.732 3.742 5.907l3.482-1.844c.006-2.175-1.666-4.815-3.742-5.907" fill="#fff"/></mask><g mask="url(#A)"><path fill-rule="evenodd" clip-rule="evenodd" d="M163.668 68.029l3.481-1.845c.031.106.057.212.081.317l-3.482 1.846a6.462 6.462 0 00-.08-.318z" fill="#18222B"/></g><mask id="B" maskUnits="userSpaceOnUse" x="160" y="61" width="8" height="9"><path fill-rule="evenodd" clip-rule="evenodd" d="M160.13 63.525c2.076 1.092 3.748 3.732 3.742 5.907l3.482-1.844c.006-2.175-1.666-4.815-3.742-5.907" fill="#fff"/></mask><g mask="url(#B)"><path fill-rule="evenodd" clip-rule="evenodd" d="M163.748 68.346l3.482-1.844c.026.12.049.237.067.356l-3.481 1.846a6.417 6.417 0 00-.068-.358z" fill="#182029"/></g><path fill-rule="evenodd" clip-rule="evenodd" d="M160.13 63.525c2.076 1.092 3.748 3.732 3.742 5.907l3.482-1.844c.006-2.175-1.666-4.815-3.742-5.907" fill="#250F8A"/><mask id="C" maskUnits="userSpaceOnUse" x="160" y="61" width="8" height="9"><path fill-rule="evenodd" clip-rule="evenodd" d="M160.13 63.525c2.076 1.092 3.748 3.732 3.742 5.907l3.482-1.844c.006-2.175-1.666-4.815-3.742-5.907" fill="#fff"/></mask><g mask="url(#C)"><path fill-rule="evenodd" clip-rule="evenodd" d="M163.815 68.704l3.482-1.845c.022.147.038.294.048.442l-3.482 1.844a4.798 4.798 0 00-.048-.441z" fill="#250F8A"/></g><path fill-rule="evenodd" clip-rule="evenodd" d="M163.863 69.144l3.482-1.844c.006.097.008.192.008.287l-3.481 1.844c0-.093-.003-.19-.009-.287z" fill="#250F8A"/><path fill-rule="evenodd" clip-rule="evenodd" d="M159.909 64.087c2.128 1.081 3.841 3.696 3.834 5.848l-.152 47.436c-.007 2.152-1.732 3.018-3.859 1.936L68.65 72.995c-2.127-1.081-3.841-3.697-3.834-5.849l.152-47.435c.007-2.151 1.733-3.018 3.86-1.936l91.081 46.312z" fill="#0AD7DD"/><path fill-rule="evenodd" clip-rule="evenodd" d="M159.348 67.795l-87.73-44.609-.121 43.085 87.712 44.592.139-43.068zM102.95 50.153l.023-7.137 51.78 26.328-.024 7.137-51.779-26.328zm-27.478-13.97l.023-7.138L98.24 40.608l-.022 7.139-.096 29.81-22.746-11.568.097-29.807zm27.381 43.777l.097-29.807 51.779 26.328-.096 29.808-51.78-26.329z" fill="#fff"/><path fill-rule="evenodd" clip-rule="evenodd" d="M117.929 93.97l-7.454-3.789-.006 1.883 7.454 3.79.006-1.884z" fill="#250F8A"/><path fill-rule="evenodd" clip-rule="evenodd" d="M98.239 40.608L75.495 29.045l-.022 7.137 22.744 11.565.022-7.139zm-5.507 2.843l.014-4.135 4.086 2.078-.014 4.134-4.086-2.077zm-5.527-2.81l.013-4.136 4.086 2.077-.013 4.136-4.086-2.077zm-5.528-2.811l.013-4.136 4.086 2.078-.013 4.135-4.086-2.077z" fill="#FA7564"/><path fill-rule="evenodd" clip-rule="evenodd" d="M98.217 47.747L75.473 36.182l-.097 29.807L98.12 77.556l.097-29.81zm-21.485-.577l.022-6.962 20.049 10.196-.022 6.96L76.73 47.17zm-.055 16.854l.007-1.786L96.732 72.43l-.006 1.787-20.049-10.194zM154.729 76.48l-51.78-26.327-.097 29.808 51.78 26.329.097-29.81zm-50.365-15.26l.022-6.96 48.897 24.861-.023 6.961-48.896-24.863zm-.013 3.573l.006-1.787 48.898 24.863-.006 1.786-48.898-24.862zm-.01 3.578l.006-1.786 48.896 24.862-.006 1.787-48.896-24.863zm-.029 8.814l.022-6.963 48.897 24.863-.022 6.961-48.897-24.86z" fill="#E5FDFD"/><path fill-rule="evenodd" clip-rule="evenodd" d="M154.752 69.344l-51.78-26.328-.023 7.137 51.78 26.328.023-7.137zm-5.54 2.825l.014-4.135 4.086 2.078-.013 4.135-4.087-2.078zm-5.527-2.81l.013-4.135 4.086 2.078-.014 4.134-4.085-2.077zm-5.528-2.811l.013-4.136 4.086 2.078-.014 4.135-4.085-2.077z" fill="#FA7564"/><path fill-rule="evenodd" clip-rule="evenodd" d="M153.312 70.112l-4.086-2.078-.014 4.135 4.087 2.078.013-4.135z" fill="#FFCA00"/><path fill-rule="evenodd" clip-rule="evenodd" d="M147.784 67.302l-4.086-2.077-.014 4.134 4.086 2.077.014-4.134zM142.255 64.49l-4.086-2.077-.012 4.136 4.085 2.076.013-4.135z" fill="#fff"/><path fill-rule="evenodd" clip-rule="evenodd" d="M96.832 41.394l-4.086-2.078-.014 4.136 4.086 2.076.014-4.134z" fill="#FFCA00"/><path fill-rule="evenodd" clip-rule="evenodd" d="M91.305 38.583l-4.086-2.078-.014 4.136 4.085 2.077.014-4.135zM85.776 35.772l-4.087-2.077-.012 4.135 4.085 2.077.014-4.135zM96.803 50.404L76.754 40.209l-.022 6.962L96.78 57.363l.023-6.96zM153.283 79.121L104.387 54.26l-.023 6.96 48.896 24.863.023-6.96zM153.232 95.085l-48.898-24.862-.022 6.962 48.896 24.861.024-6.96z" fill="#fff"/><path fill-rule="evenodd" clip-rule="evenodd" d="M96.732 72.432L76.684 62.237l-.007 1.787 20.049 10.194.006-1.786zM153.254 87.869l-48.896-24.862-.007 1.787 48.898 24.86.005-1.785zM153.242 91.447l-48.896-24.862-.005 1.786 48.897 24.863.004-1.787z" fill="#FFCA00"/><path fill-rule="evenodd" clip-rule="evenodd" d="M71.535 66.13l-2.28.983.145-45.291 2.256 1.15-.12 43.157z" fill="#172029"/><path fill-rule="evenodd" clip-rule="evenodd" d="M159.169 110.797l-.007 2.15-89.907-45.834 2.28-.984 87.634 44.668z" fill="#263442"/></svg>