<svg width="230" height="152" fill="none" xmlns="http://www.w3.org/2000/svg"><path opacity=".1" fill-rule="evenodd" clip-rule="evenodd" d="M15.175 56.46c-16.89 19.712 20.114 72.796 99.76 66.663 79.646-6.133 30.663-7.217 80.086-9.659 49.422-2.441-6.536-57.874-85.136-90.764-78.601-32.89-77.82 14.049-94.71 33.76z" fill="#02ECF1"/><path fill-rule="evenodd" clip-rule="evenodd" d="M137.461 47.059a.27.27 0 01.266.007c3.46-1.849 9.09-1.848 12.571 0a.267.267 0 01.262-.008c-.663-.35-1.193-.538-1.198-.54-.368-.13-.865-.287-1.241-.397-.196-.058-.464-.115-.664-.16-1.025-.227-2.284-.357-3.454-.357-1.189 0-2.418.128-3.46.36-.205.045-.478.105-.679.164a26.1 26.1 0 00-1.234.4 8.873 8.873 0 00-.627.263c-.165.075-.38.187-.542.268z" fill="#000"/><path fill-rule="evenodd" clip-rule="evenodd" d="M150.56 47.058l2.954 1.567 2.955 1.568 2.955 1.568 2.954 1.567 2.955 1.568 2.955 1.568 2.955 1.567 2.954 1.568 2.955 1.568 2.955 1.567a.267.267 0 00-.262.008l-29.547-15.677a.266.266 0 01.262-.007zM61.746 87.493l7.572-4.043 7.571-4.044 7.572-4.043 7.571-4.043 7.572-4.044 7.571-4.043 7.571-4.044 7.572-4.043 7.571-4.044 7.572-4.043a.27.27 0 01.266.006L62.012 87.5a.27.27 0 00-.266-.007z" fill="#000"/><path fill-rule="evenodd" clip-rule="evenodd" d="M179.845 62.742c3.482 1.847 3.5 4.843.04 6.69l-75.715 40.435c-3.458 1.847-9.087 1.848-12.568 0L62.055 94.191c-3.482-1.847-3.502-4.844-.043-6.691l75.715-40.435c3.46-1.848 9.09-1.847 12.571 0l29.547 15.677z" fill="#000"/><mask id="a" maskUnits="userSpaceOnUse" x="58" y="62" width="126" height="53"><path fill-rule="evenodd" clip-rule="evenodd" d="M58.518 62.703H183.37v52.024H58.518V62.703z" fill="#fff"/></mask><g mask="url(#a)"><path fill-rule="evenodd" clip-rule="evenodd" d="M183.322 66.89a4.994 4.994 0 00-.486-1.57 5.114 5.114 0 00-.794-1.138 8.23 8.23 0 00-.627-.589c-.234-.194-.577-.42-.834-.589-.136-.089-.332-.188-.474-.27a.267.267 0 00-.262.008c3.482 1.847 3.5 4.843.039 6.69l-75.714 40.435c-3.458 1.848-9.087 1.848-12.568.001L62.055 94.191c-3.482-1.847-3.502-4.844-.043-6.69a.27.27 0 00-.266-.007 17.8 17.8 0 00-.872.534 4.494 4.494 0 00-.397.3 7.254 7.254 0 00-.555.513 5.45 5.45 0 00-.545.67 4.884 4.884 0 00-.811 2.13c-.036.244-.04.43-.047.688l-.001.378c0 .7.123 1.199.23 1.555.198.65.527 1.143.636 1.305a5.3 5.3 0 00.442.558c.188.2.46.452.672.632.228.192.568.41.82.575.134.088.326.185.465.265l29.547 15.676c.662.349 1.192.538 1.197.54.368.13.865.287 1.241.397.196.057.464.115.664.16 1.024.227 2.283.357 3.454.357a16.44 16.44 0 003.459-.36c.204-.045.478-.105.678-.164.374-.11.868-.27 1.234-.4a8.19 8.19 0 00.626-.263c.166-.075.38-.187.543-.268.092-.049.172-.153.235-.3-.063.147-.143.251-.235.3l30.286-16.174 45.428-24.26c.257-.146.6-.344.84-.512.237-.166.532-.412.748-.6.148-.13.326-.323.451-.472.135-.162.3-.388.416-.562a4.916 4.916 0 00.717-1.929c.046-.3.051-.504.058-.763l.001-.377c-.004-.23-.007-.448-.049-.734z" fill="#250F8A"/></g><path fill-rule="evenodd" clip-rule="evenodd" d="M137.461 44.975a.27.27 0 01.266.006c3.46-1.848 9.09-1.847 12.571 0a.266.266 0 01.262-.008c-.663-.349-1.193-.537-1.198-.54-.368-.13-.865-.287-1.241-.397-.196-.057-.464-.115-.664-.16-1.025-.226-2.284-.357-3.454-.356-1.189 0-2.418.127-3.46.359-.205.046-.478.105-.679.165a26.1 26.1 0 00-1.234.4 8.873 8.873 0 00-.627.262c-.165.075-.38.188-.542.269z" fill="#646764"/><path fill-rule="evenodd" clip-rule="evenodd" d="M150.56 44.973l2.954 1.568 2.955 1.568 2.955 1.567 2.954 1.568 2.955 1.568 2.955 1.567 2.955 1.568 2.954 1.568 2.955 1.567 2.955 1.568a.266.266 0 00-.262.008L150.298 44.98a.266.266 0 01.262-.008zM61.746 85.409l7.572-4.043 7.571-4.044 7.572-4.043 7.571-4.044 7.572-4.043 7.571-4.044 7.571-4.043 7.572-4.043 7.571-4.044 7.572-4.044a.27.27 0 01.266.007L62.012 85.416a.27.27 0 00-.266-.007z" fill="#646764"/><path fill-rule="evenodd" clip-rule="evenodd" d="M179.845 60.657c3.482 1.847 3.5 4.844.04 6.691l-75.715 40.435c-3.458 1.847-9.087 1.847-12.568 0L62.055 92.106c-3.482-1.846-3.502-4.844-.043-6.69l75.715-40.435c3.46-1.848 9.09-1.848 12.571 0l29.547 15.676z" fill="#02ECF1"/><path fill-rule="evenodd" clip-rule="evenodd" d="M183.322 64.805a4.986 4.986 0 00-.486-1.57 5.115 5.115 0 00-.794-1.137 8.27 8.27 0 00-.627-.59 10 10 0 00-.834-.588c-.136-.09-.332-.189-.474-.27a.266.266 0 00-.262.008c3.482 1.846 3.5 4.843.039 6.69l-75.714 40.435c-3.458 1.847-9.087 1.847-12.568 0L62.055 92.106c-3.482-1.847-3.502-4.843-.043-6.69a.27.27 0 00-.266-.007c-.267.153-.617.366-.872.535a4.453 4.453 0 00-.397.3 7.316 7.316 0 00-.555.512 5.433 5.433 0 00-.545.671 4.882 4.882 0 00-.811 2.129c-.036.245-.04.431-.047.689l-.001.377c0 .7.123 1.2.23 1.556.198.649.527 1.142.636 1.305.123.184.325.432.442.557.188.201.46.453.672.632.228.193.568.411.82.576.134.087.326.185.465.264L91.33 111.19c.662.349 1.192.537 1.197.539.368.13.865.288 1.241.398.196.057.464.115.664.159 1.024.227 2.283.358 3.454.357a16.44 16.44 0 003.459-.359c.204-.046.478-.106.678-.165.374-.11.868-.269 1.234-.399.193-.069.441-.179.626-.263.166-.075.38-.188.543-.268.092-.049.172-.153.235-.3-.063.147-.143.251-.235.3l30.286-16.174 45.428-24.26c.257-.147.6-.344.84-.512.237-.167.532-.412.748-.601.148-.13.326-.323.451-.472.135-.16.3-.387.416-.561a4.909 4.909 0 00.717-1.93c.046-.299.051-.503.058-.762l.001-.377c-.004-.23-.007-.448-.049-.734zM162 56.586c.356.189.358.495.004.683-.352.189-.927.189-1.283 0l-6.435-3.415c-.357-.189-.359-.495-.006-.683.354-.189.928-.189 1.285 0L162 56.586zM151.846 51.198c.354.188.356.494.002.683-.352.188-.927.188-1.281 0-.357-.189-.359-.495-.006-.683.354-.189.928-.189 1.285 0z" fill="#250F8A"/><path fill-rule="evenodd" clip-rule="evenodd" d="M82.204 94.25c1.777.942 1.788 2.47.021 3.414-1.765.942-4.638.942-6.415 0-1.777-.943-1.786-2.472-.02-3.415 1.766-.943 4.637-.943 6.414 0z" fill="#250F8A"/><path fill-rule="evenodd" clip-rule="evenodd" d="M76.24 94.666c1.767-.943 4.638-.943 6.415 0 .18.095.335.198.478.303a3.134 3.134 0 00-.932-.72c-1.777-.943-4.648-.944-6.415 0-1.587.848-1.735 2.169-.457 3.112-.753-.888-.454-1.966.911-2.695z" fill="#263238"/><path fill-rule="evenodd" clip-rule="evenodd" d="M171.74 68.139c.534.283.537.742.006 1.025l-5.499 2.937-5.116 2.732-38.367 20.49-5.264 2.812-7.312 3.905-3.665 1.957c-.53.283-1.391.283-1.925 0L67.912 84.532c-.534-.283-.537-.742-.006-1.025l3.664-1.957 7.312-3.905 5.265-2.812 38.367-20.49 5.115-2.732 5.5-2.937c.53-.283 1.391-.283 1.925 0l36.686 19.465z" fill="#fff"/><path fill-rule="evenodd" clip-rule="evenodd" d="M72.79 81.737l6.405-3.404 37.702 19.904-6.406 3.404-37.702-19.904zM105.78 104.007c-.28 0-.548-.057-.735-.157L68.447 84.284c-.144-.077-.174-.144-.174-.154 0-.01.03-.074.169-.15l3.43-1.845 37.619 20.111-2.981 1.605c-.185.099-.451.156-.73.156z" fill="#FA7564"/><path fill-rule="evenodd" clip-rule="evenodd" d="M85.32 74.898l37.371-20.11 37.619 20.111-37.371 20.11-37.62-20.111z" fill="#FFCA00"/><path fill-rule="evenodd" clip-rule="evenodd" d="M80.068 77.724l4.35-2.34 37.619 20.111-4.35 2.34-37.619-20.11zM128.697 51.556l4.81-2.589c.185-.1.451-.156.73-.156.28 0 .548.057.735.157l36.598 19.566c.144.077.174.144.174.154 0 .01-.029.074-.169.15l-5.259 2.83-37.619-20.112zM123.594 54.302l4.201-2.26 37.619 20.11-4.202 2.262-37.618-20.112z" fill="#FA7564"/><path fill-rule="evenodd" clip-rule="evenodd" d="M129.033 46.59l-4.785 2.575L85.724 28.57l4.785-2.574 38.524 20.595z" fill="#02ECF1"/><path fill-rule="evenodd" clip-rule="evenodd" d="M121.914 45.523l.527.843-.228.122-.527-.845.228-.12zM121.161 44.315l.527.845-.228.12-.527-.845.228-.12z" fill="#135687"/><path fill-rule="evenodd" clip-rule="evenodd" d="M122.218 44.88l.226.363-.53.28-.228.12-.53.28-.226-.364.529-.28.229-.12.53-.279z" fill="#135687"/><path fill-rule="evenodd" clip-rule="evenodd" d="M111.428 38.873l-.002.34-10.272-5.491.001-.342 10.273 5.492z" fill="#fff"/><path fill-rule="evenodd" clip-rule="evenodd" d="M110.129 39.53l.001-.342-10.273-5.492v.34l10.272 5.493zm12.519 7.095l.005-1.417a.598.598 0 00-.297-.476l-1.332-.712c-.163-.087-.298-.017-.299.158l-.004 1.417c0 .174.133.387.297.474l1.332.712c.164.088.297.018.298-.156zM85.745 21.738l38.524 20.596-.021 6.831L85.724 28.57l.021-6.832z" fill="#250F8A"/><path fill-rule="evenodd" clip-rule="evenodd" d="M122.441 46.367l-.526-.844.53-.28-.226-.363-.531.28-.527-.845-.227.12.526.845-.53.279.226.364.531-.28.527.845.227-.121zm-.085-1.635c.165.089.297.301.296.476l-.004 1.418c0 .173-.134.244-.298.155l-1.332-.712a.599.599 0 01-.297-.474l.004-1.417c.001-.175.136-.245.299-.158l1.332.712z" fill="#fff"/><path fill-rule="evenodd" clip-rule="evenodd" d="M122.644 50.021l-3.508 1.888-38.524-20.596 3.508-1.888 38.524 20.596z" fill="#02ECF1"/><path fill-rule="evenodd" clip-rule="evenodd" d="M88.62 32.426c.015-.01.024-.024.024-.05a.15.15 0 00-.023-.073.165.165 0 00-.065-.059c-.027-.014-.049-.018-.064-.01-.014.01-.021.026-.022.05 0 .026.007.05.022.073a.16.16 0 00.063.058c.029.015.05.019.066.01zm.01.854l.002-.721-.154-.082-.002.722.153.081zm.327.175l.003-1.025-.153-.081-.003 1.025.153.081zm-1.748-1.51v-.15a.242.242 0 00-.053-.039c-.065-.034-.116-.03-.153.013l-.004-.083-.145-.078-.003.722.153.081.001-.493c.025-.044.071-.047.142-.01.021.011.04.023.062.038zm3.162 2.267l.002-.477c-.003-.174-.075-.298-.216-.374-.08-.043-.147-.046-.198-.01l-.004-.085-.143-.076-.002.722.153.081.001-.514c.03-.042.076-.048.138-.015.042.023.072.05.09.081a.238.238 0 01.028.118l-.001.467.152.082zm.716.383v-.01a.48.48 0 01-.026-.172v-.324a.39.39 0 00-.07-.22.537.537 0 00-.19-.164.357.357 0 00-.142-.046c-.043-.003-.077.006-.101.028-.025.02-.037.05-.037.09l.151.08c0-.028.011-.044.034-.05.023-.008.051-.002.085.016.041.022.07.05.09.083.02.033.03.067.03.105v.048l-.095-.05c-.099-.053-.177-.075-.23-.062-.054.012-.081.056-.082.134 0 .06.023.124.065.188a.459.459 0 00.167.151c.07.038.13.043.178.014a.41.41 0 00.018.078l.155.083zm-2.7-2.346l.005-.124a.593.593 0 00-.085-.057c-.075-.04-.134-.05-.175-.028-.043.021-.064.071-.065.151v.066l-.103-.055v.12l.103.055-.002.602.153.081.001-.601.139.074v-.12l-.138-.074v-.065c0-.08.037-.099.11-.06a.5.5 0 01.057.035zm4.523 3.01v-.065a.613.613 0 00-.074-.306.526.526 0 00-.215-.21.266.266 0 00-.158-.036.151.151 0 00-.11.073.334.334 0 00-.04.172v.02a.616.616 0 00.324.53c.055.03.108.046.153.046s.08-.015.11-.043l-.084-.127c-.044.036-.1.036-.17 0a.334.334 0 01-.124-.12.378.378 0 01-.056-.171l.444.237zm-3.215-1.719v-.065a.606.606 0 00-.075-.306.52.52 0 00-.213-.21.26.26 0 00-.159-.036.142.142 0 00-.11.074.314.314 0 00-.04.171v.02c0 .108.029.21.09.306.058.097.138.172.233.224.057.03.108.045.153.045a.142.142 0 00.11-.042l-.082-.127c-.045.037-.101.037-.172-.001a.33.33 0 01-.123-.119.35.35 0 01-.055-.171l.443.237zm-1.811-1.012v-.038a.609.609 0 00-.093-.299.571.571 0 00-.222-.214.297.297 0 00-.164-.043.144.144 0 00-.111.072.321.321 0 00-.04.172v.007a.61.61 0 00.085.317.576.576 0 00.229.224.288.288 0 00.166.043.14.14 0 00.111-.07.333.333 0 00.039-.17zm-1.16-.62v-.01a.645.645 0 00-.07-.31.459.459 0 00-.195-.204c-.076-.04-.137-.045-.182-.01l-.006-.077-.141-.076-.003 1 .153.082v-.343a.45.45 0 00.18.174c.08.043.144.044.192.004.047-.043.072-.119.072-.23zm5.457 3.271l.002-.473a.452.452 0 00-.055-.225.412.412 0 00-.168-.156c-.09-.048-.158-.047-.208 0a.383.383 0 00-.186-.211c-.082-.044-.147-.048-.195-.015l-.005-.078-.144-.077-.002.722.153.081.001-.523c.026-.039.07-.043.13-.01.08.042.12.108.122.193l-.002.475.153.081.001-.494c.01-.029.025-.046.046-.054.022-.008.05-.003.085.015a.23.23 0 01.094.084c.019.03.028.069.028.115l-.001.47.151.08zM83.8 32.01c.886.474 1.607.093 1.61-.85.003-.944-.714-2.092-1.6-2.566-.886-.474-1.608-.095-1.61.85-.003.943.714 2.092 1.6 2.566zm-3.172-6.162l38.524 20.596-.017 5.467-38.523-20.597.016-5.466z" fill="#fff"/><path fill-rule="evenodd" clip-rule="evenodd" d="M86.531 31.98c.027-.027.041-.082.041-.167a.445.445 0 00-.04-.193.262.262 0 00-.115-.127c-.063-.033-.108-.028-.135.012v.32c.027.07.072.123.134.156.048.026.087.025.115-.002zm.123-.393a.65.65 0 01.07.31v.01c0 .112-.025.188-.072.23-.048.041-.112.04-.192-.003a.45.45 0 01-.18-.174v.343l-.153-.082.003-1 .141.076.006.077c.045-.035.106-.03.182.01a.46.46 0 01.195.203z" fill="#135687"/><path fill-rule="evenodd" clip-rule="evenodd" d="M86.417 31.494c.05.027.088.068.115.126.027.057.04.121.04.193 0 .085-.014.14-.04.167-.03.027-.068.027-.116.002a.294.294 0 01-.135-.157l.001-.32c.027-.04.072-.045.135-.011z" fill="#fff"/><path fill-rule="evenodd" clip-rule="evenodd" d="M92.76 35.06v-.013a.33.33 0 00-.04-.145.25.25 0 00-.099-.093c-.042-.023-.076-.026-.102-.008-.025.016-.042.05-.05.103l.292.155zm.15.134v.065l-.444-.237a.38.38 0 00.056.171.334.334 0 00.124.12c.07.036.126.036.17 0l.083.127a.145.145 0 01-.109.043.338.338 0 01-.153-.046.617.617 0 01-.324-.53v-.02c0-.072.014-.13.04-.172a.151.151 0 01.11-.073c.048-.006.1.005.158.036.092.05.164.12.215.21.049.088.074.19.074.306z" fill="#135687"/><path fill-rule="evenodd" clip-rule="evenodd" d="M92.62 34.81a.251.251 0 01.1.093.33.33 0 01.04.145v.012l-.291-.156c.008-.052.025-.086.05-.103s.06-.014.102.008zM90.706 34.079c.032-.005.08.008.144.04l.095.048v.145a.084.084 0 01-.07.033.244.244 0 01-.185-.098.163.163 0 01-.033-.096c0-.042.016-.066.049-.072z" fill="#fff"/><path fill-rule="evenodd" clip-rule="evenodd" d="M90.91 34.297l.001-.136-.084-.044c-.056-.03-.099-.043-.127-.038-.029.006-.043.028-.043.067 0 .03.01.061.03.09.02.028.045.051.078.069a.17.17 0 00.085.022.073.073 0 00.06-.03zm.151.116c0 .065.008.122.026.171v.01l-.155-.082a.373.373 0 01-.018-.078c-.049.029-.108.024-.178-.014a.459.459 0 01-.167-.15.347.347 0 01-.065-.189c0-.078.028-.122.081-.134.054-.013.132.009.23.061l.096.051v-.048a.198.198 0 00-.03-.105.227.227 0 00-.09-.083c-.034-.018-.062-.024-.085-.016-.022.006-.034.022-.034.05l-.151-.08c0-.04.011-.07.037-.09.024-.022.058-.03.1-.028.043.003.09.018.142.046.08.043.142.097.19.165a.39.39 0 01.072.219v.324z" fill="#135687"/><path fill-rule="evenodd" clip-rule="evenodd" d="M89.405 33.09a.249.249 0 01.099.093c.024.042.038.09.04.145v.013l-.29-.155c.008-.052.024-.088.05-.103.026-.018.06-.015.101.007z" fill="#fff"/><path fill-rule="evenodd" clip-rule="evenodd" d="M87.688 32.596c.03-.026.044-.082.045-.163a.438.438 0 00-.045-.199.282.282 0 00-.12-.127c-.05-.026-.089-.026-.117 0-.03.027-.044.08-.045.165 0 .074.014.14.042.197.03.058.07.1.12.127.052.029.092.029.12 0zm.103-.405a.609.609 0 01.093.3v.037c0 .07-.013.129-.039.17a.14.14 0 01-.11.071.289.289 0 01-.167-.042.578.578 0 01-.229-.225.611.611 0 01-.085-.317v-.007c0-.071.013-.129.04-.172a.144.144 0 01.11-.072.297.297 0 01.165.043c.091.049.166.12.222.214z" fill="#135687"/><path fill-rule="evenodd" clip-rule="evenodd" d="M87.568 32.108c.05.027.092.07.12.127.03.06.045.125.045.199 0 .08-.015.137-.045.163-.028.028-.068.028-.12 0a.283.283 0 01-.12-.127.44.44 0 01-.042-.197c0-.085.015-.139.045-.165.028-.027.068-.027.117 0zM84.336 29.78l.226.364-.53.28-.228.12-.53.278-.227-.362.53-.28.228-.12.53-.28z" fill="#fff"/><path fill-rule="evenodd" clip-rule="evenodd" d="M84.559 31.268l-.527-.845.53-.28-.226-.363-.53.28-.527-.845-.228.12.527.845-.53.28.226.362.53-.279.527.844.228-.119zm-.75-2.674c.887.473 1.604 1.622 1.601 2.566-.003.943-.725 1.324-1.61.85-.887-.474-1.603-1.624-1.6-2.566.002-.944.724-1.324 1.61-.85z" fill="#EFEFEF"/><path fill-rule="evenodd" clip-rule="evenodd" d="M84.032 30.423l.527.846-.228.118-.527-.844.228-.12zM83.279 29.215l.526.845-.227.12-.528-.845.229-.12z" fill="#fff"/><path fill-rule="evenodd" clip-rule="evenodd" d="M87.156 31.756c.021.012.04.025.054.038v.152a.648.648 0 00-.063-.038c-.07-.038-.117-.034-.142.01l-.001.493-.153-.081.002-.722.146.078.004.084c.037-.044.088-.049.153-.014zM88.307 32.068a.598.598 0 01.085.057l-.005.124a.5.5 0 00-.058-.035c-.072-.039-.109-.02-.11.06v.065l.14.074-.001.12-.139-.074-.001.601-.153-.081.002-.602-.103-.055v-.12l.103.055v-.066c0-.08.022-.13.065-.15.04-.022.1-.013.175.027zM88.476 33.199l.003-.722.198.081-.003.722-.198-.081zM88.58 32.472a.21.21 0 01-.082-.076.18.18 0 01-.028-.095c0-.031.01-.054.028-.066.02-.01.048-.005.083.014a.197.197 0 01.113.173c0 .033-.01.052-.029.064-.02.01-.048.006-.085-.014zM89.006 32.43l-.004 1.026-.198-.082.004-1.026.198.082zM89.545 33.34v-.012a.315.315 0 00-.04-.145.25.25 0 00-.1-.094c-.04-.022-.075-.025-.1-.007-.027.016-.043.051-.05.103l.29.155zm.15.135v.065l-.444-.237a.349.349 0 00.056.171.327.327 0 00.123.119c.07.037.128.038.172.001l.081.127a.14.14 0 01-.109.042.335.335 0 01-.153-.045.613.613 0 01-.234-.224.563.563 0 01-.09-.306v-.02c0-.072.014-.13.04-.171a.142.142 0 01.111-.074c.047-.007.1.005.159.037a.52.52 0 01.213.209c.05.088.076.19.075.306zM90.157 33.36c.141.077.213.2.216.375l-.002.477-.153-.082.002-.468a.238.238 0 00-.028-.117.228.228 0 00-.09-.081c-.063-.033-.108-.027-.138.015l-.001.514-.153-.081.002-.722.143.076.004.086c.051-.037.117-.034.198.009zM91.96 34.325c.075.04.131.093.168.156a.45.45 0 01.055.225l-.002.473-.151-.08.001-.47a.224.224 0 00-.028-.115.234.234 0 00-.094-.084c-.034-.018-.063-.023-.085-.015-.021.008-.037.025-.046.054l-.001.495-.153-.082.002-.475a.212.212 0 00-.122-.193c-.06-.032-.104-.029-.13.01l-.001.524-.153-.082.002-.722.144.077.005.078c.048-.033.113-.028.195.015.09.049.152.12.186.211.05-.047.119-.048.208 0z" fill="#135687"/><path fill-rule="evenodd" clip-rule="evenodd" d="M100.007 62.194L80.871 72.492 42.347 51.896l19.136-10.298 38.524 20.596z" fill="#02ECF1"/><path fill-rule="evenodd" clip-rule="evenodd" d="M74.322 46.596c1.719.92 3.116.182 3.121-1.647.006-1.83-1.382-4.056-3.1-4.975-1.72-.919-3.117-.182-3.123 1.648-.005 1.828 1.382 4.055 3.102 4.974zm-30.228-3.469L76.197 60.29l-6.33-13.591c-.317-.678-.826-1.205-1.336-1.478-.502-.268-1.005-.29-1.326.035l-2.531 2.56c-.322.327-.824.304-1.325.036-.536-.286-1.07-.853-1.378-1.572l-6.367-14.881c-.312-.727-.845-1.29-1.377-1.574-.565-.302-1.13-.293-1.43.16l-8.703 13.142zm-1.62-32.904L81 30.819l-.128 41.673-38.524-20.596.128-41.673z" fill="#FFCA00"/><path fill-rule="evenodd" clip-rule="evenodd" d="M54.227 29.825c.532.285 1.065.847 1.377 1.574l6.367 14.88c.308.72.842 1.286 1.378 1.573.5.268 1.004.29 1.325-.035l2.531-2.56c.32-.326.824-.304 1.326-.036.51.273 1.02.8 1.335 1.478l6.33 13.591-32.102-17.163 8.704-13.142c.3-.453.864-.462 1.428-.16zM74.342 39.974c1.72.92 3.107 3.146 3.102 4.975-.006 1.829-1.403 2.566-3.122 1.647-1.72-.919-3.107-3.145-3.102-4.974.006-1.83 1.403-2.567 3.122-1.648z" fill="#fff"/><path fill-rule="evenodd" clip-rule="evenodd" d="M79.25 73.398l-3.508 1.887L37.22 54.69l3.507-1.888L79.25 73.398z" fill="#02ECF1"/><path fill-rule="evenodd" clip-rule="evenodd" d="M39.27 52.243l.526.846-.227.12-.527-.846c-.064-.1-.063-.207 0-.241.032-.017.073-.01.114.011.041.022.082.06.113.11zM47.798 56.753c.041.022.082.06.113.11.063.102.063.21 0 .242l-.531.28-.228.12-.53.28c-.031.017-.072.012-.113-.01a.32.32 0 01-.114-.112c-.062-.099-.062-.207 0-.241l.531-.28.228-.12.53-.28c.032-.016.073-.01.114.011z" fill="#fff"/><path fill-rule="evenodd" clip-rule="evenodd" d="M48.114 58.487l.005-1.417a.597.597 0 00-.297-.474l-1.332-.712c-.163-.088-.297-.017-.297.156l-.005 1.418c0 .175.133.387.296.474l1.332.713c.164.087.298.017.298-.158zm-3.532-1.888l.005-1.417a.596.596 0 00-.296-.474l-1.331-.712c-.165-.088-.299-.018-.3.156l-.003 1.417c-.001.175.132.388.296.476l1.332.712c.163.087.297.017.297-.158zm-3.827-2.046l.005-1.417a.597.597 0 00-.295-.474l-1.332-.712c-.165-.088-.299-.018-.299.156l-.004 1.417c0 .175.132.388.296.476l1.332.712c.163.087.297.017.297-.158zm-3.519-5.5L75.76 69.649l-.018 5.636L37.22 54.69l.017-5.637z" fill="#fff"/><path fill-rule="evenodd" clip-rule="evenodd" d="M40.44 52.82c.04.021.082.06.113.11.062.1.062.208 0 .241l-.53.28-.228.12-.53.28c-.032.017-.073.012-.114-.01a.31.31 0 01-.114-.111c-.063-.1-.063-.208.001-.241l.53-.28.228-.12.53-.28c.032-.017.072-.012.114.01z" fill="#fff"/><path fill-rule="evenodd" clip-rule="evenodd" d="M40.55 54.296l-.527-.846.53-.28c.063-.032.063-.14.001-.24a.32.32 0 00-.114-.112c-.04-.021-.082-.027-.113-.01l-.53.28-.527-.846a.313.313 0 00-.114-.11c-.04-.022-.082-.027-.113-.01-.064.033-.064.14 0 .24l.526.846-.53.28c-.064.033-.064.14 0 .24a.31.31 0 00.112.112c.041.022.083.027.114.01l.53-.28.527.846c.031.05.072.089.113.11.04.023.082.028.114.011.062-.033.063-.14 0-.241zm-.085-1.634c.163.087.295.3.295.474l-.005 1.417c0 .175-.134.245-.297.158l-1.332-.712a.598.598 0 01-.296-.476l.004-1.417c0-.174.134-.244.299-.156l1.331.712z" fill="#EFEFEF"/><path fill-rule="evenodd" clip-rule="evenodd" d="M40.55 54.296c.061.101.06.209-.001.242-.032.017-.074.011-.115-.01a.308.308 0 01-.112-.112l-.527-.845.227-.12.527.845zM47.907 58.23c.063.101.063.209 0 .241-.032.017-.073.012-.114-.01a.318.318 0 01-.114-.111l-.527-.846.228-.12.527.846z" fill="#fff"/><path fill-rule="evenodd" clip-rule="evenodd" d="M47.907 58.23l-.527-.846.53-.28c.065-.032.065-.14.001-.241a.31.31 0 00-.112-.11c-.041-.022-.082-.028-.114-.012l-.53.28-.528-.845a.312.312 0 00-.112-.11c-.042-.022-.083-.027-.115-.011-.062.034-.062.142 0 .241l.527.845-.53.28c-.063.035-.063.142-.002.242.032.05.073.09.114.111.041.022.082.027.113.01l.53-.28.528.845c.031.051.072.09.114.112.04.022.081.027.113.01.063-.033.064-.14 0-.242zm-.085-1.634c.165.088.297.3.297.474l-.005 1.417c0 .175-.133.245-.298.157l-1.332-.712a.597.597 0 01-.296-.475l.005-1.417c0-.173.134-.244.297-.156l1.332.712z" fill="#EFEFEF"/><path fill-rule="evenodd" clip-rule="evenodd" d="M46.627 56.177l.527.845-.228.12-.527-.845c-.062-.1-.062-.207.001-.242.032-.016.073-.01.114.012.04.022.082.06.113.11z" fill="#fff"/><path fill-rule="evenodd" clip-rule="evenodd" d="M44.377 56.341l-.528-.845.531-.28c.062-.033.063-.14 0-.241a.32.32 0 00-.113-.11c-.041-.022-.082-.028-.113-.011l-.53.28-.527-.846a.316.316 0 00-.114-.11c-.04-.022-.082-.027-.113-.01-.064.033-.064.14 0 .24l.526.846-.53.28c-.064.033-.065.14-.001.24.03.051.072.09.113.112.041.022.083.027.114.01l.53-.28.527.846c.03.05.072.089.113.11.04.022.082.028.114.01.062-.032.062-.14 0-.24zm-.086-1.633c.164.087.296.3.296.474l-.005 1.417c0 .175-.134.245-.297.158l-1.332-.712a.598.598 0 01-.297-.476l.005-1.417c0-.174.134-.244.299-.156l1.331.712z" fill="#EFEFEF"/><path fill-rule="evenodd" clip-rule="evenodd" d="M44.376 56.342c.062.101.062.209 0 .242-.032.016-.074.011-.115-.01a.31.31 0 01-.112-.112l-.528-.845.228-.12.527.845z" fill="#fff"/><path fill-rule="evenodd" clip-rule="evenodd" d="M44.267 54.865a.32.32 0 01.113.11c.062.102.062.21 0 .242l-.531.28-.228.12-.53.28c-.031.017-.072.012-.114-.01a.311.311 0 01-.113-.111c-.063-.1-.063-.208.001-.242l.53-.28.228-.12.53-.28c.032-.016.072-.01.114.011z" fill="#fff"/><path fill-rule="evenodd" clip-rule="evenodd" d="M43.096 54.29l.527.845-.227.12-.528-.846c-.063-.1-.063-.208.001-.241.031-.017.073-.011.114.01.04.023.082.062.113.111z" fill="#fff"/><path fill-rule="evenodd" clip-rule="evenodd" d="M74.408 75.971l-6.034 3.247-38.523-20.596 6.034-3.246L74.407 75.97z" fill="#02ECF1"/><path fill-rule="evenodd" clip-rule="evenodd" d="M62.75 71.983v-.22a.593.593 0 00-.032-.22.246.246 0 00-.112-.122c-.05-.027-.087-.027-.11.001-.024.028-.036.085-.038.17v.22c0 .09.01.163.035.221.023.057.06.099.11.126.05.026.087.027.11-.003.024-.028.037-.086.037-.173zm.08-.47c.047.094.073.209.073.346v.167c0 .14-.025.232-.074.278-.05.044-.125.039-.226-.015a.517.517 0 01-.221-.222.751.751 0 01-.077-.349v-.168c.001-.14.027-.23.075-.275.05-.043.125-.039.227.016a.524.524 0 01.223.221z" fill="#135687"/><path fill-rule="evenodd" clip-rule="evenodd" d="M62.606 71.421c.051.027.088.068.112.123a.589.589 0 01.033.22v.22c-.001.087-.014.144-.038.172-.023.03-.06.03-.11.004a.246.246 0 01-.11-.126.583.583 0 01-.035-.222v-.22c.002-.085.014-.142.038-.17.023-.028.06-.028.11 0zM61.875 71.284a.29.29 0 01.134.152l-.001.32c-.03.039-.075.042-.136.01a.266.266 0 01-.116-.124.43.43 0 01-.042-.194c0-.083.015-.137.043-.164.027-.028.067-.028.118 0zM58.843 71.052a.238.238 0 01.111.123.558.558 0 01.035.219v.22c-.003.087-.014.144-.038.174-.023.028-.06.03-.11.003a.243.243 0 01-.11-.127.575.575 0 01-.035-.222v-.22c0-.085.014-.141.038-.168.023-.028.06-.028.109-.002z" fill="#F9F9FA"/><path fill-rule="evenodd" clip-rule="evenodd" d="M58.782 70.03v-.137l-.084-.045c-.056-.03-.099-.042-.127-.036-.029.006-.043.027-.043.066 0 .031.01.06.03.09.019.03.044.052.077.07.03.016.059.023.085.021a.077.077 0 00.062-.03zm.15.117c0 .064.008.12.026.169v.01l-.155-.083a.36.36 0 01-.018-.076c-.049.027-.108.022-.179-.015A.448.448 0 0158.44 70a.34.34 0 01-.065-.188c0-.077.027-.121.081-.135.054-.011.132.01.23.062l.095.05v-.046a.2.2 0 00-.029-.106.224.224 0 00-.09-.083c-.034-.018-.063-.023-.085-.017-.023.006-.034.024-.034.053l-.151-.081c0-.04.011-.07.036-.092.025-.021.059-.03.101-.027.043.003.09.017.142.045.08.043.142.1.19.167.047.067.07.14.072.218l-.001.326z" fill="#135687"/><path fill-rule="evenodd" clip-rule="evenodd" d="M58.746 70.077a.181.181 0 01-.097-.023.227.227 0 01-.088-.075.159.159 0 01-.033-.096c0-.042.016-.065.048-.071.032-.006.08.007.145.04l.095.047v.147a.088.088 0 01-.07.031z" fill="#F9F9FA"/><path fill-rule="evenodd" clip-rule="evenodd" d="M58.246 71.385v-.318a.296.296 0 00-.133-.154c-.051-.027-.09-.027-.118 0-.028.029-.042.083-.043.166a.43.43 0 00.042.194.273.273 0 00.116.124c.06.032.106.027.136-.012zm.017-.51l.137.073-.002.7c0 .094-.028.155-.084.179-.055.026-.13.013-.224-.037a.595.595 0 01-.145-.11.578.578 0 01-.109-.145l.073-.059a.44.44 0 00.173.182c.05.026.09.033.12.02.029-.015.043-.05.043-.106v-.048c-.043.029-.102.023-.175-.016a.478.478 0 01-.195-.205.676.676 0 01-.074-.32c0-.11.025-.188.075-.228.05-.04.116-.039.198.005a.439.439 0 01.182.183l.007-.068z" fill="#135687"/><path fill-rule="evenodd" clip-rule="evenodd" d="M58.113 70.913c.06.033.106.086.134.155l-.001.317c-.03.04-.075.045-.136.012a.274.274 0 01-.116-.124.43.43 0 01-.042-.194c0-.082.015-.136.043-.165.027-.028.067-.028.118 0zM57.313 70.778c.032-.005.08.008.145.04l.094.047v.145c-.015.022-.04.03-.069.034a.21.21 0 01-.099-.025.244.244 0 01-.088-.074.157.157 0 01-.032-.097c0-.04.016-.064.048-.07z" fill="#F9F9FA"/><path fill-rule="evenodd" clip-rule="evenodd" d="M57.336 69.06l-.184-.077.048-.191.183.075-.047.192z" fill="#135687"/><path fill-rule="evenodd" clip-rule="evenodd" d="M57.383 68.867l-.047.192-.184-.076.048-.191.183.075z" fill="#F9F9FA"/><path fill-rule="evenodd" clip-rule="evenodd" d="M55.02 69.66v-.135l-.084-.045c-.057-.03-.1-.043-.127-.038-.029.006-.043.028-.043.066 0 .032.01.062.03.09a.215.215 0 00.162.092c.027-.002.047-.01.061-.03zm.15.117c0 .064.008.122.024.168v.012l-.155-.083a.496.496 0 01-.017-.077c-.048.029-.108.024-.178-.014a.459.459 0 01-.166-.15.34.34 0 01-.065-.188c0-.079.027-.123.081-.135.054-.013.131.009.23.062l.095.05v-.048a.194.194 0 00-.029-.104.228.228 0 00-.09-.084c-.034-.017-.063-.024-.085-.016-.023.006-.034.022-.034.05l-.153-.08c0-.04.013-.07.038-.091a.144.144 0 01.101-.028.534.534 0 01.332.212c.047.068.07.14.072.219l-.001.325z" fill="#135687"/><path fill-rule="evenodd" clip-rule="evenodd" d="M54.814 69.442c.032-.005.08.008.145.04l.095.049v.144c-.017.021-.04.03-.07.033a.243.243 0 01-.185-.098.163.163 0 01-.033-.097c0-.04.016-.065.048-.071zM54.302 67.4v.01l-.34-.183c.008-.06.028-.1.06-.12.032-.019.07-.016.118.01a.282.282 0 01.115.112.39.39 0 01.047.171z" fill="#F9F9FA"/><path fill-rule="evenodd" clip-rule="evenodd" d="M53.822 68.634l-.15-.08-.036.19.138.074v.106l-.158-.085-.048.249-.106-.057.05-.248-.14-.075-.05.248-.105-.056.048-.248-.144-.077v-.106l.164.088.036-.19-.152-.082v-.105l.173.092.049-.252.104.056-.049.252.141.076.05-.253.104.056-.05.252.131.07v.105z" fill="#135687"/><path fill-rule="evenodd" clip-rule="evenodd" d="M53.572 68.69l-.182-.075.048-.191.182.075-.048.192z" fill="#135687"/><path fill-rule="evenodd" clip-rule="evenodd" d="M53.39 68.615l.048-.191.182.075-.048.192-.182-.076zM53.199 66.81v.01l-.34-.182c.008-.061.028-.101.06-.12.032-.02.071-.016.118.008a.291.291 0 01.116.114c.028.05.043.106.046.17zM47.673 64.205a.34.34 0 01-.14-.147.462.462 0 01-.051-.22c0-.09.017-.152.053-.181.035-.03.082-.028.138.002.06.031.106.08.141.149a.47.47 0 01.052.22c0 .089-.017.15-.051.18-.036.03-.082.029-.142-.003z" fill="#F9F9FA"/><path fill-rule="evenodd" clip-rule="evenodd" d="M47.815 64.207c.034-.03.05-.09.051-.179a.469.469 0 00-.052-.22.335.335 0 00-.14-.15c-.057-.03-.104-.03-.14-.002-.035.03-.052.091-.052.181 0 .08.016.154.051.22a.341.341 0 00.14.148c.06.032.106.032.142.002zm.083-.428a.63.63 0 01.084.317v.01c0 .069-.012.126-.037.168a.14.14 0 01-.11.072.275.275 0 01-.162-.04.55.55 0 01-.223-.222.621.621 0 01-.086-.315v-.009c0-.07.015-.126.04-.17a.144.144 0 01.11-.072c.047-.005.1.007.16.038.093.05.168.125.224.223z" fill="#26272C"/><path fill-rule="evenodd" clip-rule="evenodd" d="M46.23 63.084v.01l-.34-.183c.008-.06.028-.1.06-.12.03-.02.07-.016.117.009.049.026.087.063.115.113.029.05.044.106.048.172zM43.72 63.219c.06.032.106.085.136.155l-.002.317c-.03.04-.076.043-.137.01a.275.275 0 01-.115-.123.43.43 0 01-.042-.194c0-.083.015-.136.043-.165.028-.027.066-.028.117 0zM39.792 59.445c.058.03.106.08.14.15.036.068.053.14.053.22 0 .088-.018.148-.053.178-.034.03-.081.03-.14-.002a.332.332 0 01-.14-.147.466.466 0 01-.052-.22c0-.09.018-.152.053-.181.035-.03.08-.029.139.002zM38.998 60.92l.048-.192.182.076-.047.192-.183-.077z" fill="#F9F9FA"/><path fill-rule="evenodd" clip-rule="evenodd" d="M39.43 60.94l-.15-.08-.037.19.139.073v.105l-.159-.084-.047.249-.105-.056.048-.249-.14-.075-.05.248-.104-.056.048-.248-.144-.078v-.105l.164.088.036-.19-.151-.081v-.105l.17.091.05-.252.106.056-.05.252.14.076.05-.253.104.056-.049.252.13.07v.105z" fill="#135687"/><path fill-rule="evenodd" clip-rule="evenodd" d="M39.181 60.996l-.183-.077.048-.19.182.075-.047.192z" fill="#135687"/><path fill-rule="evenodd" clip-rule="evenodd" d="M38.047 58.54a.244.244 0 01.098.096c.024.04.037.088.041.145v.012l-.291-.156c.007-.052.024-.086.05-.104.025-.018.06-.015.102.008zM37.255 59.51c.051.028.088.068.112.123a.583.583 0 01.034.219v.22c-.002.088-.015.144-.038.174-.024.028-.06.029-.109.003a.247.247 0 01-.112-.128.573.573 0 01-.035-.222v-.22c.002-.084.015-.14.038-.167.024-.028.06-.028.11-.002zM36.524 59.37c.06.033.106.086.135.156v.317c-.03.04-.077.044-.138.011a.278.278 0 01-.115-.123.424.424 0 01-.041-.194c0-.082.013-.137.042-.166.028-.027.066-.027.117 0z" fill="#F9F9FA"/><path fill-rule="evenodd" clip-rule="evenodd" d="M36.335 58.028v-.136l-.082-.044c-.056-.03-.099-.042-.127-.037-.029.006-.043.027-.043.067 0 .031.01.06.03.089.02.03.045.053.077.07.03.016.058.024.085.021.027 0 .047-.01.06-.03zm.152.118c0 .065.008.12.025.169v.01l-.156-.083a.533.533 0 01-.017-.075c-.048.027-.107.022-.178-.016a.446.446 0 01-.166-.15.33.33 0 01-.065-.188c0-.077.027-.122.081-.135.054-.012.132.009.23.062l.094.05v-.047a.2.2 0 00-.028-.105.226.226 0 00-.09-.083c-.034-.019-.064-.024-.085-.017-.023.006-.034.024-.034.052l-.153-.081c0-.04.013-.07.039-.091.024-.022.058-.03.1-.028.043.004.09.018.142.046.08.043.142.099.19.166.047.067.07.14.072.218l-.001.326z" fill="#135687"/><path fill-rule="evenodd" clip-rule="evenodd" d="M36.132 57.812c.032-.007.08.006.145.039l.093.047v.147c-.014.02-.037.031-.068.032a.233.233 0 01-.186-.098.159.159 0 01-.033-.096c0-.043.016-.065.049-.071zM34.97 57.061v.012l-.29-.155c.008-.051.023-.087.049-.105.027-.017.06-.014.102.008a.24.24 0 01.098.095c.024.04.038.09.041.145z" fill="#F9F9FA"/><path fill-rule="evenodd" clip-rule="evenodd" d="M34.97 57.073v-.012a.309.309 0 00-.04-.145.243.243 0 00-.099-.095c-.04-.022-.075-.026-.102-.008-.025.018-.04.053-.048.105l.29.155zm.151.134v.066l-.444-.238a.362.362 0 00.055.172.333.333 0 00.124.117c.07.038.127.038.171.001l.082.128a.145.145 0 01-.11.043.358.358 0 01-.152-.047.61.61 0 01-.324-.529v-.02c0-.071.013-.13.04-.172a.142.142 0 01.11-.073c.048-.007.1.004.16.036a.518.518 0 01.212.209c.051.09.076.193.076.307zM33.114 56.329c.028-.029.044-.082.044-.165a.426.426 0 00-.044-.197.281.281 0 00-.12-.129c-.05-.026-.09-.026-.119 0-.029.027-.044.082-.044.165 0 .075.015.14.043.197.028.058.069.1.12.128.052.028.092.028.12 0zm.103-.407a.62.62 0 01.093.3v.037a.326.326 0 01-.04.17.148.148 0 01-.11.073.302.302 0 01-.166-.044.615.615 0 01-.314-.541v-.008c0-.07.013-.127.04-.17a.137.137 0 01.11-.072.296.296 0 01.164.041c.092.05.167.121.223.214z" fill="#135687"/><path fill-rule="evenodd" clip-rule="evenodd" d="M32.994 55.839c.05.027.09.07.12.129.03.058.044.123.044.197 0 .083-.016.136-.044.164-.028.027-.068.027-.12 0a.283.283 0 01-.12-.128.436.436 0 01-.043-.198c0-.083.015-.138.044-.164.03-.027.07-.026.119 0zM31.842 55.713a.289.289 0 01-.135-.157v-.32c.03-.04.073-.043.135-.01.051.027.09.069.116.125.027.057.04.121.04.194 0 .084-.014.14-.041.167-.029.026-.067.026-.115 0z" fill="#F9F9FA"/><path fill-rule="evenodd" clip-rule="evenodd" d="M36.298 55.625v-.013a.308.308 0 00-.04-.145.241.241 0 00-.1-.094c-.04-.022-.074-.024-.101-.008-.025.017-.041.053-.048.105l.29.155zm.15.133v.067l-.443-.238a.365.365 0 00.178.29c.071.038.128.038.172.002l.082.126a.14.14 0 01-.11.043.332.332 0 01-.152-.046.613.613 0 01-.234-.223.564.564 0 01-.09-.307v-.02c0-.072.013-.13.04-.172a.145.145 0 01.11-.074.26.26 0 01.16.038c.09.05.161.119.212.208.05.09.076.192.076.306z" fill="#135687"/><path fill-rule="evenodd" clip-rule="evenodd" d="M36.298 55.613v.012l-.29-.155c.007-.052.023-.087.048-.105.027-.016.062-.014.102.008a.24.24 0 01.099.095c.024.04.038.09.04.145zM42.04 61.064c0-.089.071-.096.214-.02l.09.049v.148a.084.084 0 01-.071.04.187.187 0 01-.103-.024.248.248 0 01-.094-.083.19.19 0 01-.036-.11z" fill="#F9F9FA"/><path fill-rule="evenodd" clip-rule="evenodd" d="M34.138 53.926l-.279.334.281.64-.185-.098-.195-.462-.198.252-.185-.1.284-.338-.274-.629.183.098.19.453.194-.248.184.098zM34.775 54.188l-.004 1.026-.198-.082.004-1.026.198.082zM34.9 55.307l.004-.721.198.08-.003.723-.199-.082zM35.005 54.58a.204.204 0 01-.083-.077.172.172 0 01-.029-.094c0-.033.01-.054.03-.065.018-.011.046-.008.083.011a.208.208 0 01.082.078c.02.032.03.063.03.096 0 .031-.01.054-.03.063-.019.011-.048.008-.083-.011zM35.374 54.533l-.002.591.048-.037.189-.124.182.098-.252.166.277.57-.177-.095-.2-.417-.067.038-.001.236-.153-.082.003-1.025.153.081zM36.821 55.598c.081.043.146.099.197.168.049.07.074.138.074.207l-.153-.082a.174.174 0 00-.032-.095.235.235 0 00-.086-.078c-.034-.018-.06-.023-.082-.018-.021.005-.033.02-.033.049 0 .024.01.049.03.073.02.025.06.06.118.105.061.046.108.09.142.126.033.037.059.075.076.11a.28.28 0 01.023.111c0 .067-.026.106-.075.118-.051.014-.118 0-.2-.044a.586.586 0 01-.25-.255.334.334 0 01-.036-.141l.149.08c.001.04.015.075.04.11a.282.282 0 00.1.084c.04.022.07.03.091.025.022-.005.032-.02.032-.047a.132.132 0 00-.033-.084.667.667 0 00-.111-.099 1.118 1.118 0 01-.13-.114c-.076-.08-.114-.156-.114-.232 0-.061.026-.1.075-.116.048-.015.112-.002.188.039zM31.957 55.712c.027-.028.041-.083.041-.167a.449.449 0 00-.04-.194.264.264 0 00-.116-.125c-.062-.033-.106-.03-.134.01l-.001.32a.288.288 0 00.135.157c.048.025.086.025.115 0zm.123-.393c.047.091.07.194.07.311v.009c0 .111-.025.189-.072.23-.048.04-.112.04-.192-.004a.452.452 0 01-.18-.174v.343l-.153-.082.003-1 .141.076.006.077c.045-.033.106-.03.182.01a.46.46 0 01.195.204zM33.902 56.93l.003-.722.198.082-.003.721-.198-.081zM34.006 56.203a.212.212 0 01-.083-.076.18.18 0 01-.027-.093c0-.033.01-.056.028-.067.02-.011.048-.006.083.013a.198.198 0 01.113.175c0 .03-.01.05-.03.062-.02.01-.047.006-.084-.014zM34.432 56.163l-.004 1.024-.198-.082.004-1.024.198.082zM35.583 57.092c.141.076.213.202.215.374l-.001.477-.153-.082.002-.467a.224.224 0 00-.028-.116.218.218 0 00-.09-.081c-.063-.034-.108-.03-.14.014v.513l-.152-.08.002-.722.143.076.004.086c.051-.037.116-.036.198.008zM37.386 58.056a.403.403 0 01.222.381l-.001.474-.153-.082.001-.469a.223.223 0 00-.026-.115.241.241 0 00-.094-.082c-.035-.018-.063-.024-.085-.017a.084.084 0 00-.046.054l-.001.495-.153-.082.002-.475a.21.21 0 00-.122-.191c-.062-.034-.104-.03-.13.01l-.001.522-.153-.082.002-.722.144.077.004.078c.047-.034.114-.028.196.015.09.049.152.12.186.211.05-.047.119-.047.208 0z" fill="#135687"/><path fill-rule="evenodd" clip-rule="evenodd" d="M39.456 58.927l-.317.442v.36l-.12-.064v-.36l-.313-.78.139.075.236.615.238-.361.137.073zM39.932 59.992c.035-.03.052-.09.053-.178a.468.468 0 00-.052-.22.339.339 0 00-.141-.15c-.058-.03-.104-.03-.139-.002-.035.03-.053.091-.053.182 0 .08.017.153.052.22.034.066.08.115.14.147.059.032.106.032.14.001zm.084-.427c.057.1.085.205.084.318v.008c0 .07-.013.126-.038.168a.135.135 0 01-.11.073.27.27 0 01-.16-.04.553.553 0 01-.224-.221.612.612 0 01-.085-.316v-.009c0-.07.013-.127.04-.17a.14.14 0 01.11-.072c.046-.005.1.007.159.039a.573.573 0 01.224.222zM40.778 59.883l-.002.722-.11-.059-.002-.071c-.045.033-.111.024-.199-.023a.412.412 0 01-.165-.154.46.46 0 01-.057-.23l.001-.47.116.062-.002.466c0 .11.042.188.126.233.089.047.148.043.177-.011l.001-.526.116.061zM41.544 60.28c.077.04.14.1.19.174.05.076.077.153.08.231l-.11-.058a.295.295 0 00-.05-.141.3.3 0 00-.11-.104c-.06-.032-.105-.034-.137-.006-.033.028-.049.084-.05.17v.024c0 .083.016.156.048.216.033.063.078.11.139.142.04.022.076.028.107.019.031-.01.048-.035.053-.073l.109.058a.143.143 0 01-.04.097c-.025.025-.058.036-.1.036a.27.27 0 01-.13-.036.546.546 0 01-.22-.216.607.607 0 01-.08-.313v-.02c0-.071.01-.127.035-.17a.141.141 0 01.105-.07c.045-.007.099.006.161.04zM42.343 61.241l.001-.148-.09-.049c-.143-.076-.214-.069-.214.02a.19.19 0 00.036.11.248.248 0 00.094.083c.036.02.07.027.103.025a.083.083 0 00.07-.04zm.116.096c0 .066.009.123.024.17v.01l-.122-.064a.343.343 0 01-.015-.084c-.055.03-.119.026-.194-.014a.457.457 0 01-.165-.15.334.334 0 01-.063-.186c0-.075.027-.118.081-.132.054-.013.129.006.226.058l.113.06v-.055a.226.226 0 00-.035-.123.28.28 0 00-.107-.095c-.042-.023-.076-.03-.104-.023-.029.008-.043.026-.043.057l-.116-.062c0-.036.012-.064.036-.084a.133.133 0 01.099-.027.329.329 0 01.136.042.502.502 0 01.183.162.38.38 0 01.067.207v.333zM42.96 61.036a.396.396 0 01.217.375l-.002.477-.116-.062.002-.477a.276.276 0 00-.034-.133.256.256 0 00-.103-.093.15.15 0 00-.099-.022.105.105 0 00-.067.05l-.001.513-.116-.062.002-.721.11.059.003.093c.053-.043.12-.041.204.003zM44.517 61.882l-.2.616-.093-.05-.164-.634-.163.46-.093-.05-.195-.827.115.062.133.613.158-.458.094.05.16.639.132-.483.116.062zM45.077 62.905l.003-.722.15.062-.003.722-.15-.062zM45.16 62.141a.161.161 0 01-.066-.063.143.143 0 01-.024-.077c0-.026.008-.045.024-.054.015-.01.037-.008.066.008a.16.16 0 01.066.063.16.16 0 01.022.078c0 .026-.007.044-.022.053-.015.01-.037.008-.066-.008zM45.54 62.254l-.002.175.126.067v.096l-.126-.067-.001.448c0 .028.005.054.017.074.01.02.03.038.057.053a.314.314 0 00.056.02v.102a.486.486 0 01-.09-.036.28.28 0 01-.117-.112.326.326 0 01-.04-.165l.002-.446-.124-.067V62.3l.125.067v-.175l.116.062zM46.23 63.093v-.009a.392.392 0 00-.047-.171.285.285 0 00-.116-.114c-.047-.025-.087-.027-.118-.008-.03.02-.05.06-.06.12l.341.182zm.116.114v.05l-.46-.245a.427.427 0 00.058.204c.038.064.084.11.142.141a.212.212 0 00.105.03.13.13 0 00.074-.033l.071.1c-.058.06-.143.061-.256 0a.578.578 0 01-.224-.216.576.576 0 01-.087-.303v-.023a.33.33 0 01.04-.172.147.147 0 01.108-.074.243.243 0 01.15.032.505.505 0 01.206.203c.05.088.073.19.073.306zM47.303 63.372l-.275.689c-.043.096-.11.12-.203.07l-.02-.012-.044-.033v-.099l.03.018c.04.021.072.03.093.025.023-.005.04-.027.054-.064l.027-.06-.24-.844.126.068.168.632.16-.456.124.066zM48.661 64.098l-.002.722-.11-.06-.003-.071c-.045.033-.111.024-.2-.023a.416.416 0 01-.164-.154.457.457 0 01-.056-.229l.001-.47.116.061-.001.467c0 .11.04.187.125.232.087.047.147.043.177-.01l.002-.527.115.062zM49.113 64.326a.19.19 0 01.051.038v.114a.633.633 0 00-.057-.034c-.076-.041-.127-.034-.154.021l-.002.511-.115-.062.002-.721.111.06.003.085c.038-.044.092-.049.161-.011zM49.747 64.504v.174l.126.069v.096l-.127-.068-.001.448c0 .028.005.054.016.073.012.022.031.04.058.054a.28.28 0 00.055.02v.101a.44.44 0 01-.089-.035.283.283 0 01-.117-.113.323.323 0 01-.04-.164l.002-.446-.123-.066v-.096l.124.066v-.175l.116.062zM50.438 65.343v-.01a.36.36 0 00-.048-.17.281.281 0 00-.114-.113c-.047-.025-.086-.028-.119-.01-.031.02-.051.06-.058.121l.339.182zm.115.113v.051l-.459-.245c.001.071.02.139.058.204.038.064.086.11.142.14a.21.21 0 00.105.031.133.133 0 00.075-.032l.07.098c-.056.061-.143.062-.256.001a.577.577 0 01-.224-.216.573.573 0 01-.086-.303v-.023a.33.33 0 01.04-.172.149.149 0 01.108-.074.242.242 0 01.15.032.497.497 0 01.205.203.61.61 0 01.072.305zM51.203 65.457l-.223.24.228.486-.134-.072-.156-.353-.158.185-.135-.072.23-.242-.221-.476.134.072.148.343.152-.183.135.072zM51.483 65.432v.175l.127.068v.096l-.127-.068-.002.448a.15.15 0 00.017.074c.011.021.03.039.058.053a.3.3 0 00.055.02v.102a.483.483 0 01-.09-.036.284.284 0 01-.116-.112.324.324 0 01-.04-.164l.002-.447-.123-.066v-.096l.123.066v-.174l.116.061zM52.18 65.677v.39c.05-.04.117-.039.2.006.143.076.215.202.215.374v.477l-.117-.062.002-.477a.247.247 0 00-.034-.134.247.247 0 00-.102-.092c-.038-.02-.07-.027-.098-.021a.099.099 0 00-.067.048l-.002.515-.117-.063.003-1.024.117.063zM53.727 66.793a.19.19 0 01.05.038v.114a.673.673 0 00-.056-.035c-.077-.04-.128-.033-.155.022l-.001.51-.118-.062.003-.722.113.06.002.087c.039-.045.093-.049.162-.012zM54.302 67.41v-.01a.39.39 0 00-.047-.172.282.282 0 00-.115-.112c-.048-.026-.086-.028-.119-.01-.03.02-.05.06-.06.12l.341.183zm.116.113v.05l-.46-.245c.002.071.021.14.058.204.038.064.084.11.142.14a.21.21 0 00.105.031.133.133 0 00.075-.032l.07.098c-.056.062-.142.062-.255.002a.58.58 0 01-.225-.217.574.574 0 01-.085-.303v-.023c0-.072.013-.13.039-.172a.151.151 0 01.107-.074.244.244 0 01.152.032.501.501 0 01.204.203.61.61 0 01.073.306zM55.721 67.57l-.002.62.063-.047.211-.125.141.076-.265.16.294.578-.137-.073-.235-.46-.072.043-.001.252-.116-.062.003-1.024.116.062zM56.347 68.784a.167.167 0 01.095.147c0 .028-.009.045-.024.054-.016.011-.04.006-.071-.01a.167.167 0 01-.07-.065.154.154 0 01-.022-.079c0-.027.008-.047.023-.057.016-.01.038-.006.07.01z" fill="#26272C"/><path fill-rule="evenodd" clip-rule="evenodd" d="M57.584 69.003l-.15-.08-.036.19.138.074v.106l-.158-.084-.048.247-.104-.056.047-.247-.14-.075-.048.246-.106-.056.049-.247-.145-.077v-.106l.165.087.035-.19-.152-.081v-.106l.173.093.049-.253.104.056-.049.252.142.076.048-.252.105.055-.049.253.13.07v.105zM57.836 68.701v.382c.05-.034.113-.033.189.008.144.077.217.205.22.383l-.002.47-.153-.081.002-.465a.22.22 0 00-.03-.123.233.233 0 00-.09-.078c-.06-.032-.106-.028-.137.012l-.002.516-.15-.08.002-1.025.151.081zM59.908 69.808l-.001.382c.05-.035.112-.033.188.008.146.078.217.205.22.382l-.002.47-.152-.08v-.466c.001-.05-.009-.09-.028-.122a.248.248 0 00-.09-.078c-.062-.033-.107-.029-.137.013l-.001.516-.153-.082.003-1.024.153.081zM60.66 70.34v.173l.12.065v.12l-.12-.064-.001.403c0 .028.005.05.015.068.01.017.028.033.055.048.017.009.035.017.052.022v.124a.392.392 0 01-.099-.038.315.315 0 01-.176-.3l.001-.409-.111-.06v-.12l.112.06v-.174l.153.081zM61.278 71.365v-.137l-.082-.044c-.056-.03-.099-.043-.127-.037-.029.006-.043.027-.043.067 0 .031.01.06.028.088.02.03.045.053.08.071.03.016.057.024.084.021a.073.073 0 00.06-.03zm.152.117c0 .065.008.12.025.169v.01l-.155-.083a.318.318 0 01-.017-.075c-.05.026-.11.021-.178-.016a.453.453 0 01-.169-.151.336.336 0 01-.063-.187c0-.077.028-.122.082-.135.053-.012.13.008.23.062l.093.05v-.047a.2.2 0 00-.03-.106.225.225 0 00-.088-.082c-.035-.02-.063-.024-.086-.018-.022.007-.033.025-.033.053l-.153-.081c0-.04.013-.07.038-.092a.135.135 0 01.1-.027.36.36 0 01.143.046.533.533 0 01.189.166c.048.067.072.14.073.218l-.001.326zM62.008 71.755v-.32a.29.29 0 00-.133-.152c-.05-.027-.09-.028-.118 0-.028.027-.042.081-.042.164a.43.43 0 00.041.194.264.264 0 00.116.124c.06.032.106.03.136-.01zm.017-.512l.137.073-.002.701c0 .095-.028.154-.084.18-.055.024-.13.011-.224-.038a.602.602 0 01-.145-.111.556.556 0 01-.109-.144l.073-.06a.429.429 0 00.173.182c.05.026.09.035.12.02.029-.013.043-.049.043-.105v-.049c-.043.03-.101.024-.175-.016a.478.478 0 01-.195-.204.669.669 0 01-.074-.319c0-.113.025-.188.076-.229.05-.04.115-.04.197.004a.438.438 0 01.182.185l.007-.07zM63.453 71.754l-.003.974-.153-.082.003-.78-.224-.038v-.136l.357.051.02.01zM34.557 57.896l-.001.382c.05-.035.113-.031.19.01.144.077.217.203.218.38l-.002.472-.152-.082v-.466c.001-.05-.009-.09-.028-.12a.232.232 0 00-.09-.08c-.061-.033-.107-.028-.136.014l-.002.516-.153-.082.004-1.025.152.081zM43.124 63.3v-.136l-.082-.044c-.057-.03-.1-.042-.128-.038-.028.007-.043.03-.043.067 0 .031.01.062.028.09a.22.22 0 00.165.092c.027-.002.047-.011.06-.031zm.151.117c0 .065.008.122.025.169v.012l-.155-.083a.312.312 0 01-.017-.077c-.05.028-.11.023-.178-.014a.454.454 0 01-.167-.15.336.336 0 01-.064-.189c0-.078.027-.122.08-.134.054-.014.13.008.231.061l.093.05v-.048a.195.195 0 00-.029-.105.228.228 0 00-.089-.082c-.035-.018-.063-.025-.084-.016-.023.005-.035.022-.035.05l-.152-.081c0-.04.013-.07.037-.092a.153.153 0 01.102-.026.388.388 0 01.141.047.54.54 0 01.19.165c.047.068.07.14.072.218v.325zM43.855 63.69v-.317a.303.303 0 00-.135-.155c-.05-.027-.089-.027-.117 0-.029.029-.043.083-.043.166a.43.43 0 00.042.194.274.274 0 00.116.123c.06.033.107.03.137-.01zm.015-.51l.137.073-.002.7c0 .094-.027.155-.082.18-.057.025-.13.013-.225-.038a.608.608 0 01-.146-.11.6.6 0 01-.108-.145l.072-.059a.439.439 0 00.174.182c.05.027.09.033.12.02.028-.015.044-.049.044-.106v-.048c-.044.03-.103.023-.177-.016a.47.47 0 01-.193-.204.665.665 0 01-.075-.32c0-.112.026-.189.075-.228.05-.041.115-.04.197.004a.436.436 0 01.182.183l.007-.068zM46.625 64.787l-.15-.08-.035.19.138.074v.105l-.158-.084-.048.248-.104-.056.047-.248-.14-.075-.049.248-.104-.056.047-.249-.144-.077v-.105l.164.088.036-.19-.152-.082v-.106l.172.093.05-.253.104.056-.05.253.142.075.049-.252.105.055-.05.253.13.07v.105zM46.878 64.484l-.001.382c.051-.035.113-.032.19.009.144.077.217.203.22.381l-.002.472-.153-.081.002-.467c0-.05-.01-.09-.03-.122a.23.23 0 00-.09-.079c-.06-.032-.106-.026-.137.014l-.002.516-.151-.081.003-1.025.151.08zM48.389 65.582c.08.043.147.1.196.17.05.069.075.138.075.205l-.153-.081a.173.173 0 00-.032-.096.244.244 0 00-.086-.076c-.034-.018-.061-.025-.082-.02-.022.005-.032.023-.032.05 0 .025.009.05.028.074.02.024.06.058.12.104.06.047.106.089.14.126a.46.46 0 01.076.11.258.258 0 01.025.113c0 .065-.025.104-.077.117-.05.012-.117-.002-.199-.046a.607.607 0 01-.25-.254.334.334 0 01-.036-.14l.149.08c.002.038.015.075.04.11a.304.304 0 00.1.084c.04.02.071.03.091.024.021-.005.031-.021.031-.047 0-.03-.01-.056-.032-.083a.732.732 0 00-.112-.1 1.09 1.09 0 01-.13-.114c-.076-.08-.114-.157-.113-.23 0-.064.025-.101.075-.117.05-.016.112-.003.188.037zM48.95 65.591l-.002.382c.05-.035.112-.032.189.009.145.078.218.204.22.38l-.002.473-.153-.082.002-.466c0-.05-.01-.09-.03-.121a.242.242 0 00-.09-.08c-.06-.032-.106-.026-.136.015l-.002.516-.152-.082.003-1.025.153.081zM49.702 66.122v.176l.12.064v.12l-.12-.064-.002.403c0 .027.006.05.015.068.01.018.029.033.056.048a.302.302 0 00.053.021v.126a.488.488 0 01-.1-.038.316.316 0 01-.176-.3v-.41l-.11-.06v-.12l.111.06v-.176l.153.082zM56.146 69.439l-.001.382c.05-.036.112-.032.188.008.145.078.217.204.22.382l-.002.472-.153-.082.002-.466c0-.05-.01-.09-.03-.121a.24.24 0 00-.09-.08c-.06-.033-.106-.027-.136.014l-.001.516-.153-.082.003-1.025.153.082zM56.898 69.97v.175l.12.064v.12l-.12-.064-.002.403c0 .027.006.05.016.069a.13.13 0 00.055.047.266.266 0 00.052.02v.127a.47.47 0 01-.1-.038.316.316 0 01-.175-.3l.001-.41-.111-.059v-.12l.112.06v-.176l.152.081zM57.516 70.995v-.136l-.082-.043c-.056-.03-.099-.043-.127-.038-.029.006-.043.028-.043.066 0 .031.008.061.028.09a.216.216 0 00.164.092c.026-.003.047-.011.06-.031zm.152.117c0 .065.008.122.025.169v.012l-.156-.083a.319.319 0 01-.017-.077c-.049.028-.109.023-.18-.015a.462.462 0 01-.166-.15.344.344 0 01-.063-.188c0-.078.027-.122.081-.134.054-.014.13.008.23.061l.094.05v-.048a.193.193 0 00-.03-.104.225.225 0 00-.088-.083c-.035-.018-.064-.025-.087-.017-.02.007-.032.023-.032.052l-.153-.082c0-.04.013-.07.037-.091a.15.15 0 01.1-.028.528.528 0 01.332.212c.049.07.072.14.074.22l-.001.324zM32.233 57.092l-.149-.08-.037.19.139.074v.105l-.158-.084-.048.248-.105-.056.047-.248-.14-.075-.048.248-.105-.056.049-.248-.146-.078v-.105l.165.087.037-.189-.152-.081v-.106l.17.092.051-.252.105.056-.05.252.14.075.05-.252.105.056-.05.252.13.07v.105z" fill="#135687"/><path fill-rule="evenodd" clip-rule="evenodd" d="M31.985 57.148l-.184-.076.049-.191.183.076-.048.191z" fill="#135687"/><path fill-rule="evenodd" clip-rule="evenodd" d="M31.801 57.072l.049-.191.184.076-.05.191-.183-.076zM33.227 57.9c.032-.004.08.008.145.041l.093.047v.145c-.017.021-.04.031-.07.033a.243.243 0 01-.185-.098.165.165 0 01-.033-.098c0-.04.016-.064.05-.07z" fill="#F9F9FA"/><path fill-rule="evenodd" clip-rule="evenodd" d="M33.43 58.117l.001-.135-.082-.044c-.057-.03-.1-.042-.128-.038-.03.005-.044.028-.044.065 0 .032.01.063.03.091a.215.215 0 00.163.092c.027-.002.046-.011.06-.03zm.152.118c0 .065.008.122.025.168v.012l-.155-.083a.373.373 0 01-.018-.077c-.048.028-.108.024-.179-.014a.465.465 0 01-.166-.151.344.344 0 01-.063-.188c0-.078.027-.122.08-.134.055-.013.131.008.231.062l.094.05v-.049a.194.194 0 00-.03-.104.227.227 0 00-.089-.082c-.035-.02-.063-.025-.086-.018-.022.006-.032.023-.033.052l-.152-.082c0-.039.013-.07.037-.091.024-.02.058-.03.1-.028a.53.53 0 01.332.212c.048.07.072.141.073.22v.325zM32.582 55.488c.021.01.04.025.053.039v.152a.438.438 0 00-.062-.04c-.07-.037-.118-.034-.142.01l-.001.494-.153-.082.002-.722.146.078.004.084c.037-.044.088-.048.153-.013zM35.928 59.452v-.135l-.082-.044c-.057-.03-.1-.042-.128-.038-.029.006-.043.028-.043.066 0 .032.01.062.03.091a.21.21 0 00.078.069c.03.016.058.023.084.023.028-.003.047-.012.06-.032zm.151.118c0 .065.008.121.025.168v.012l-.155-.083a.38.38 0 01-.017-.077c-.048.029-.108.024-.178-.014a.455.455 0 01-.167-.15.337.337 0 01-.064-.188c0-.079.027-.123.08-.135.054-.013.132.009.231.062l.093.05v-.049a.202.202 0 00-.027-.103.23.23 0 00-.09-.083c-.036-.019-.064-.025-.086-.017-.022.006-.034.023-.034.05l-.152-.08c0-.04.013-.07.037-.092a.152.152 0 01.102-.027c.042.005.089.02.141.047a.542.542 0 01.19.165c.047.069.07.14.072.219l-.001.325z" fill="#135687"/><path fill-rule="evenodd" clip-rule="evenodd" d="M35.724 59.235c.032-.005.08.008.145.04l.094.047v.146c-.015.021-.038.03-.068.033a.206.206 0 01-.097-.024.24.24 0 01-.09-.074.164.164 0 01-.033-.097c0-.04.016-.065.049-.071z" fill="#F9F9FA"/><path fill-rule="evenodd" clip-rule="evenodd" d="M33.324 53.491l-.277.334.28.641-.184-.099-.196-.461-.197.251-.185-.099.284-.339-.274-.628.182.097.191.453.194-.247.182.097zM38.186 58.792v-.012a.326.326 0 00-.04-.145.243.243 0 00-.099-.095c-.042-.023-.076-.026-.102-.008-.026.018-.042.053-.05.105l.291.155zm.15.133v.067l-.444-.237c.005.06.023.119.056.17a.327.327 0 00.124.119c.07.037.126.037.17 0l.081.128a.144.144 0 01-.107.043.368.368 0 01-.154-.048.61.61 0 01-.323-.527v-.02c0-.072.013-.13.039-.173a.15.15 0 01.11-.074c.049-.006.101.006.159.037a.524.524 0 01.214.21c.05.089.075.191.075.305zM39.683 60.637v.382c.049-.035.111-.032.188.009.144.077.217.203.22.38l-.002.473-.153-.082.001-.466c0-.05-.01-.09-.029-.121a.24.24 0 00-.09-.08c-.061-.032-.106-.026-.136.015l-.002.516-.152-.082.003-1.026.152.082z" fill="#135687"/><path fill-rule="evenodd" clip-rule="evenodd" d="M40.423 61.748c.032-.005.08.008.145.04l.093.048v.145c-.017.02-.04.03-.07.033a.196.196 0 01-.096-.025.239.239 0 01-.088-.073.163.163 0 01-.034-.098c0-.04.017-.065.05-.07z" fill="#F9F9FA"/><path fill-rule="evenodd" clip-rule="evenodd" d="M40.627 61.965v-.136l-.082-.043c-.056-.03-.1-.043-.128-.038-.03.005-.044.027-.044.065 0 .031.01.062.03.09a.214.214 0 00.163.092c.027-.002.047-.01.06-.03zm.151.117c0 .065.009.122.026.169v.012l-.156-.083a.382.382 0 01-.018-.078c-.048.029-.108.024-.178-.014a.461.461 0 01-.167-.15.341.341 0 01-.063-.188c0-.078.027-.122.081-.134.054-.014.13.008.23.062l.094.05v-.05a.19.19 0 00-.03-.103.226.226 0 00-.09-.084c-.033-.017-.062-.024-.084-.016-.023.006-.033.023-.033.051l-.153-.08c0-.04.013-.07.037-.093a.144.144 0 01.1-.027.53.53 0 01.332.212c.047.069.072.14.074.22l-.002.324zM41.753 61.744v.381c.049-.035.112-.03.188.01.145.077.218.204.219.38l-.002.472-.152-.081.001-.466c0-.05-.01-.09-.029-.121a.238.238 0 00-.09-.08c-.061-.033-.106-.027-.136.014l-.002.516-.152-.082.003-1.025.152.082zM42.506 62.274v.176l.12.064v.12l-.12-.064-.002.403c0 .027.006.05.015.069.01.017.028.033.055.047a.285.285 0 00.054.021v.127a.504.504 0 01-.1-.039.317.317 0 01-.177-.3l.002-.41-.112-.059v-.12l.112.06v-.176l.153.081zM44.598 63.92v-.22a.583.583 0 00-.034-.219.246.246 0 00-.111-.122c-.05-.027-.087-.027-.11 0-.024.028-.036.084-.038.169v.22c-.001.091.01.165.034.221.024.058.062.101.113.128.048.026.085.025.107-.004.025-.03.037-.085.04-.173zm.077-.471c.049.094.074.21.074.345v.168c-.001.14-.025.233-.075.277-.05.044-.123.04-.224-.013a.521.521 0 01-.223-.223.764.764 0 01-.076-.348v-.169c0-.14.026-.231.076-.274.048-.045.123-.04.225.015a.524.524 0 01.223.222z" fill="#135687"/><path fill-rule="evenodd" clip-rule="evenodd" d="M44.452 63.358c.05.027.087.068.111.123a.586.586 0 01.035.219l-.001.22c-.002.087-.014.143-.039.173-.022.028-.06.03-.107.004a.247.247 0 01-.113-.128.573.573 0 01-.035-.222v-.22c.003-.085.015-.14.038-.168.024-.028.061-.028.11-.001z" fill="#F9F9FA"/><path fill-rule="evenodd" clip-rule="evenodd" d="M44.911 62.08c.023.012.04.025.051.038v.114a.563.563 0 00-.057-.035c-.076-.04-.127-.034-.156.02l-.001.512-.116-.062.002-.722.113.06.003.086c.038-.044.092-.049.161-.011z" fill="#26272C"/><path fill-rule="evenodd" clip-rule="evenodd" d="M47.823 65.812v-.135l-.083-.045c-.055-.029-.1-.042-.128-.037-.028.006-.043.028-.043.066 0 .031.01.062.03.09.02.03.045.052.078.07.03.015.058.023.085.022.027-.002.047-.011.061-.03zm.15.117c0 .065.009.122.027.17v.011l-.156-.083a.385.385 0 01-.018-.077c-.048.028-.108.024-.178-.014a.463.463 0 01-.167-.151.346.346 0 01-.064-.188c0-.078.027-.122.08-.134.055-.014.133.008.231.061l.095.05v-.047a.195.195 0 00-.03-.105.23.23 0 00-.09-.083c-.033-.018-.062-.024-.084-.017-.023.006-.034.023-.034.051l-.152-.08c0-.04.012-.071.037-.092a.144.144 0 01.1-.028.532.532 0 01.332.212c.047.069.072.141.072.22v.324z" fill="#135687"/><path fill-rule="evenodd" clip-rule="evenodd" d="M47.618 65.595c.032-.005.082.009.145.04l.094.048v.145c-.016.021-.039.03-.07.033a.245.245 0 01-.185-.098.164.164 0 01-.032-.098c0-.04.016-.064.048-.07zM50.116 66.93c.033-.004.081.008.146.04l.093.048v.145c-.015.022-.04.03-.068.034a.204.204 0 01-.097-.025.243.243 0 01-.09-.074.167.167 0 01-.032-.097c0-.04.016-.064.048-.07z" fill="#F9F9FA"/><path fill-rule="evenodd" clip-rule="evenodd" d="M50.32 67.147v-.135l-.082-.044c-.057-.03-.099-.042-.127-.038-.029.006-.043.028-.043.066 0 .032.01.063.028.09a.217.217 0 00.164.092c.026-.002.047-.01.06-.03zm.152.118c0 .065.008.122.025.168v.012l-.156-.083a.304.304 0 01-.017-.076c-.05.027-.109.022-.178-.015a.451.451 0 01-.166-.15.338.338 0 01-.065-.188c0-.079.027-.123.081-.135.054-.013.13.008.23.062l.094.05v-.049a.195.195 0 00-.03-.104.226.226 0 00-.088-.082c-.036-.02-.064-.025-.087-.018-.021.007-.032.023-.032.052l-.153-.082c0-.039.013-.07.037-.091a.146.146 0 01.102-.027.38.38 0 01.141.047.53.53 0 01.19.164c.047.07.071.141.072.22v.325zM51.792 67.765v-.219c0-.09-.01-.164-.033-.218a.245.245 0 00-.111-.123c-.051-.027-.088-.027-.11.001-.025.026-.036.084-.038.168v.22c0 .092.01.165.034.222.024.058.06.1.112.127.05.027.086.025.109-.003.024-.03.037-.086.037-.175zm.08-.469c.048.094.072.21.073.346v.168c-.001.14-.025.232-.075.276-.05.045-.123.042-.225-.013a.519.519 0 01-.221-.222.747.747 0 01-.077-.348v-.169c0-.14.026-.231.076-.274.048-.045.123-.04.225.015a.524.524 0 01.223.221z" fill="#135687"/><path fill-rule="evenodd" clip-rule="evenodd" d="M51.648 67.206c.05.027.087.067.111.123a.584.584 0 01.033.218v.219c0 .089-.013.145-.038.174-.022.029-.059.03-.108.004a.244.244 0 01-.112-.128.571.571 0 01-.035-.222l.001-.219c.002-.085.013-.142.037-.168.023-.029.06-.029.11-.001zM52.204 68.012l.274-.263.014-.015-.002.406-.286-.128z" fill="#F9F9FA"/><path fill-rule="evenodd" clip-rule="evenodd" d="M52.444 68.139l.002-.406-.012.015-.23.263.24.128zm.15.082l.115.06v.13l-.115-.061v.216l-.152-.08v-.217l-.395-.211-.004-.1.396-.447.157.084-.001.626z" fill="#135687"/><path fill-rule="evenodd" clip-rule="evenodd" d="M55.148 68.202a.337.337 0 01-.14-.147.465.465 0 01-.052-.22c0-.09.018-.152.053-.182.036-.029.082-.028.139.002a.34.34 0 01.14.15c.036.068.053.14.053.22 0 .088-.018.148-.053.178-.034.031-.081.03-.14-.001z" fill="#F9F9FA"/><path fill-rule="evenodd" clip-rule="evenodd" d="M55.288 68.202c.035-.029.052-.089.053-.177a.468.468 0 00-.052-.22.337.337 0 00-.141-.15c-.057-.03-.104-.031-.139-.002-.035.03-.053.09-.053.18 0 .08.017.154.052.221a.337.337 0 00.14.147c.059.032.106.033.14.001zm.085-.427c.056.1.084.205.084.318v.009c0 .069-.014.125-.04.167a.138.138 0 01-.107.074.276.276 0 01-.163-.04.552.552 0 01-.223-.222.61.61 0 01-.085-.315v-.01c0-.07.013-.127.04-.17a.14.14 0 01.11-.072c.046-.005.1.007.16.039a.57.57 0 01.224.222z" fill="#26272C"/><path fill-rule="evenodd" clip-rule="evenodd" d="M59.858 71.477v.14l-.364-.194-.026.22c.042-.005.09.009.144.037.086.047.154.111.202.197a.55.55 0 01.071.278c0 .097-.027.163-.08.193-.053.029-.127.02-.22-.03a.588.588 0 01-.208-.186.488.488 0 01-.09-.249l.149.08a.3.3 0 00.046.133c.027.038.06.07.102.092.046.025.083.026.11.005.026-.021.039-.064.039-.124a.325.325 0 00-.042-.164.296.296 0 00-.19-.14.11.11 0 00-.063.01l-.122-.096.051-.464.49.262zM59.348 69.798c.08.043.146.101.196.17.049.068.075.138.074.205l-.153-.081a.173.173 0 00-.032-.094.231.231 0 00-.086-.078c-.034-.018-.06-.024-.082-.018-.021.005-.032.02-.033.048 0 .024.01.05.03.073.02.025.06.06.12.107a1 1 0 01.14.124c.033.038.059.074.076.11a.274.274 0 01.025.113c0 .065-.026.103-.077.117-.051.013-.117-.003-.2-.046a.605.605 0 01-.25-.254.32.32 0 01-.035-.14l.148.079c.001.04.015.076.04.11a.284.284 0 00.1.085c.04.022.07.029.091.024.022-.004.032-.021.032-.047a.126.126 0 00-.033-.083.72.72 0 00-.111-.1.991.991 0 01-.13-.114c-.076-.08-.114-.157-.114-.23 0-.063.026-.101.075-.117.05-.016.112-.004.189.037z" fill="#135687"/><path fill-rule="evenodd" clip-rule="evenodd" d="M61.075 71.148c.032-.007.08.006.145.039l.094.047v.147c-.015.02-.04.03-.069.032a.185.185 0 01-.097-.023.23.23 0 01-.09-.076.162.162 0 01-.032-.095c0-.042.016-.065.049-.071z" fill="#F9F9FA"/><path fill-rule="evenodd" clip-rule="evenodd" d="M45.089 61.946c-.013.006-.019.021-.02.04 0 .02.006.04.02.06.01.02.028.036.05.048.023.012.04.014.051.006.012-.007.017-.02.018-.04a.12.12 0 00-.017-.06.128.128 0 00-.051-.048c-.023-.012-.04-.014-.051-.006zm11.183 6.827c-.01.008-.017.022-.017.043a.126.126 0 00.07.11c.025.013.044.016.056.008.012-.007.019-.02.019-.041a.13.13 0 00-.073-.112c-.025-.013-.042-.016-.055-.008zM34.046 56.157c.015-.01.023-.024.023-.048a.148.148 0 00-.022-.075.168.168 0 00-.065-.059c-.028-.014-.049-.018-.064-.01-.015.01-.022.027-.022.052 0 .024.007.047.021.071a.164.164 0 00.064.058c.029.015.05.019.065.01zm.87-1.814c-.015.008-.022.023-.023.05 0 .023.007.048.023.071a.16.16 0 00.063.06c.027.014.05.017.064.008.016-.007.023-.024.023-.048a.161.161 0 00-.086-.133c-.028-.015-.05-.017-.064-.008zm10.28 7.902l-.117-.062-.002.722.116.062.003-.722zm-10.14-7.578l-.153-.082-.003.722.154.082.002-.722zm-.999 1.623l-.153-.082-.002.722.153.081.002-.721zm.326.897l.003-1.024-.153-.082-.003 1.024.153.082zm.193-3.08l-.003 1.025.153.081.003-1.025-.153-.081zm14.262 10.086l-.002.721.115.062.002-.511c.027-.055.078-.062.154-.022.021.012.04.023.057.035v-.114a.198.198 0 00-.05-.038c-.07-.036-.124-.032-.162.012l-.003-.086-.111-.06zm-4.089-1.975c.029-.055.08-.062.156-.021a.49.49 0 01.057.035v-.114a.191.191 0 00-.05-.038c-.07-.037-.124-.033-.162.011l-.003-.085-.113-.06-.002.72.116.063.002-.511zm8.7 4.44l-.001.722.117.063.002-.511c.026-.055.077-.063.154-.022.02.011.04.023.056.035v-.114a.199.199 0 00-.05-.038c-.07-.037-.123-.033-.162.011l-.002-.085-.113-.06zM32.28 55.34l-.002.722.153.082.001-.493c.024-.045.071-.048.142-.01a.47.47 0 01.062.039v-.152a.244.244 0 00-.053-.04c-.065-.034-.116-.03-.153.014l-.004-.084-.146-.078zm17.595 10.132v-.1a.269.269 0 01-.055-.021.137.137 0 01-.058-.054.149.149 0 01-.016-.073l.001-.448.127.068v-.097l-.127-.068v-.174l-.115-.062v.174l-.123-.065v.096l.122.066-.001.446c0 .062.012.117.039.164a.28.28 0 00.117.113c.03.015.06.027.09.035zm1.37.008v.096l.123.066-.002.447c0 .061.013.116.04.164a.285.285 0 00.117.112.483.483 0 00.089.035v-.1a.282.282 0 01-.055-.02.137.137 0 01-.058-.054.149.149 0 01-.017-.074l.002-.448.127.068v-.096l-.127-.068v-.174l-.115-.062-.001.174-.123-.066zm-5.578-2.258v-.1a.295.295 0 01-.054-.02.13.13 0 01-.075-.128l.001-.448.126.067v-.096l-.126-.067.001-.175-.116-.062v.175l-.125-.067v.097l.124.066-.001.446c0 .062.013.117.04.165a.28.28 0 00.116.112.49.49 0 00.09.035zM60.781 71.3v-.124a.247.247 0 01-.052-.022.132.132 0 01-.055-.048.135.135 0 01-.016-.068l.002-.403.12.064v-.12l-.12-.065v-.174l-.152-.082v.175l-.112-.06v.12l.111.06-.001.409c0 .138.059.238.176.3a.41.41 0 00.099.038zm-3.762-.368v-.126a.246.246 0 01-.052-.02.13.13 0 01-.055-.048.144.144 0 01-.016-.069l.002-.403.12.064v-.12l-.12-.064v-.176l-.152-.081v.175l-.112-.06v.121l.111.06-.001.409c0 .136.059.237.174.3.033.017.067.029.1.038zM35.43 59.39v-.126a.27.27 0 01-.053-.021.137.137 0 01-.055-.048.143.143 0 01-.015-.068l.001-.403.12.064v-.12l-.12-.064v-.177l-.15-.08v.176l-.113-.06v.12l.112.06-.002.409c0 .137.058.237.175.3a.47.47 0 00.1.038zm14.393 7.695v-.126a.285.285 0 01-.053-.021.134.134 0 01-.056-.048.146.146 0 01-.015-.068l.002-.403.12.064v-.12l-.12-.064v-.176l-.152-.082v.176l-.112-.06v.12l.11.06v.41c-.001.136.058.237.175.3a.5.5 0 00.1.038zm-7.196-3.847v-.127a.271.271 0 01-.053-.02.134.134 0 01-.056-.048.148.148 0 01-.015-.069l.001-.403.12.065v-.12l-.12-.065.001-.176-.152-.081-.001.175-.112-.06v.121l.112.06-.002.409c0 .136.059.237.176.3a.507.507 0 00.1.039zm20.822 9.491l.003-.974-.02-.01-.356-.051v.135l.223.038-.003.78.153.082zm-15.323-8.916l-.001.471c0 .087.019.164.056.229a.409.409 0 00.165.154c.087.047.154.056.2.023l.002.072.11.059.002-.722-.116-.062-.001.526c-.03.053-.09.058-.177.011-.085-.045-.126-.123-.125-.232l.001-.466-.116-.063zm-7.883-4.214l-.001.47c0 .089.019.165.057.23a.414.414 0 00.165.154c.088.047.154.056.2.023v.071l.111.06.002-.723-.116-.061-.001.526c-.029.054-.088.058-.177.01-.084-.044-.126-.122-.125-.232l.001-.466-.116-.062zm2.4 1.283l-.003.721.116.062.002-.514a.105.105 0 01.066-.048.15.15 0 01.1.02c.046.026.08.056.103.093.02.036.032.081.033.134l-.002.477.116.062.002-.477a.397.397 0 00-.217-.375c-.083-.044-.151-.046-.204-.003l-.002-.093-.11-.06zm-7.255-3.67c.03-.043.076-.048.138-.014a.217.217 0 01.09.08c.019.032.029.072.028.117v.467l.152.082.001-.477c-.002-.173-.074-.298-.215-.374-.082-.044-.147-.045-.198-.008l-.004-.087-.143-.076-.002.722.151.08.002-.512zm6.92 3.616c.024.038.036.08.036.123v.055l-.114-.06c-.097-.052-.172-.071-.226-.058-.054.014-.08.056-.081.132 0 .061.02.124.063.187a.463.463 0 00.165.148c.075.04.139.044.194.015a.35.35 0 00.016.084l.121.065v-.01a.546.546 0 01-.024-.172l.001-.332a.378.378 0 00-.067-.207.5.5 0 00-.184-.162.333.333 0 00-.135-.042.135.135 0 00-.1.026.105.105 0 00-.035.085l.116.062c0-.031.014-.05.042-.057.029-.007.063 0 .105.023a.28.28 0 01.107.095zm-5.396-4.707a.133.133 0 01.033.083c0 .028-.01.043-.032.048-.021.004-.05-.003-.092-.024a.288.288 0 01-.099-.085.194.194 0 01-.04-.11l-.148-.08c0 .044.012.091.036.142a.579.579 0 00.25.254c.082.043.148.058.2.044.049-.012.074-.051.075-.118a.276.276 0 00-.024-.11.462.462 0 00-.076-.111 1.124 1.124 0 00-.142-.126.688.688 0 01-.118-.105.115.115 0 01-.03-.073c0-.029.012-.044.033-.049.021-.005.048 0 .082.018a.233.233 0 01.086.078.172.172 0 01.033.095l.152.082a.355.355 0 00-.074-.207.57.57 0 00-.196-.168c-.077-.04-.14-.054-.189-.039-.05.016-.075.055-.075.116 0 .076.038.152.114.232.035.036.077.074.13.114.05.038.089.072.111.099zm18.87 14.105c.052-.013.076-.053.076-.117a.26.26 0 00-.023-.112.463.463 0 00-.076-.11 1.143 1.143 0 00-.14-.126.816.816 0 01-.12-.105.117.117 0 01-.03-.074c0-.028.012-.044.033-.05.021-.005.048.002.082.02a.243.243 0 01.086.076.173.173 0 01.032.096l.153.082a.35.35 0 00-.075-.206.551.551 0 00-.196-.17c-.076-.04-.14-.053-.188-.037-.05.016-.075.053-.075.117 0 .073.038.15.114.23.035.038.077.074.13.114.052.04.089.073.111.1a.125.125 0 01.032.084c0 .025-.01.041-.03.046-.022.005-.052-.003-.093-.025a.307.307 0 01-.099-.083.2.2 0 01-.04-.11l-.148-.08c0 .042.012.09.036.14.023.05.058.097.101.143a.612.612 0 00.148.111c.083.044.149.058.2.046zM41.392 62.53c.051-.013.077-.052.077-.117a.263.263 0 00-.025-.112.437.437 0 00-.076-.11 1.185 1.185 0 00-.14-.126.776.776 0 01-.12-.105.119.119 0 01-.028-.074c0-.027.01-.044.032-.05.02-.005.047.002.082.02a.244.244 0 01.086.077.166.166 0 01.032.095l.152.082a.35.35 0 00-.074-.206.552.552 0 00-.196-.17c-.076-.04-.139-.052-.188-.037-.05.016-.075.053-.076.117 0 .073.038.151.114.23.036.038.078.074.13.114.052.04.09.073.112.1a.13.13 0 01.034.084c0 .026-.012.041-.033.046-.02.006-.051-.003-.09-.024a.3.3 0 01-.101-.084.208.208 0 01-.04-.11l-.148-.079c0 .042.011.089.036.14.023.05.057.096.1.142a.608.608 0 00.15.111c.081.044.147.058.199.046zm-7.196-3.847c.051-.013.077-.052.077-.117a.264.264 0 00-.025-.113.423.423 0 00-.075-.11 1.192 1.192 0 00-.141-.126.792.792 0 01-.119-.104.114.114 0 01-.029-.074c0-.027.01-.044.031-.05.021-.005.048.002.082.02.037.02.065.045.087.076a.167.167 0 01.032.096l.152.081a.346.346 0 00-.074-.205.558.558 0 00-.196-.17c-.077-.04-.139-.053-.189-.037-.049.015-.073.054-.074.117 0 .073.038.151.113.23.035.037.08.074.13.113.052.04.089.073.112.1a.13.13 0 01.033.085c0 .025-.011.04-.031.047-.021.005-.053-.004-.092-.026a.305.305 0 01-.1-.083.207.207 0 01-.04-.111l-.148-.079c0 .043.011.09.035.14a.571.571 0 00.25.254c.082.043.148.058.2.046zm14.393 7.695c.05-.013.076-.052.076-.117a.261.261 0 00-.025-.113.454.454 0 00-.076-.11 1.129 1.129 0 00-.14-.126.773.773 0 01-.12-.105.113.113 0 01-.028-.073c0-.027.01-.045.032-.05.021-.005.048.002.082.02.035.02.065.045.086.076a.173.173 0 01.032.096l.153.081a.354.354 0 00-.075-.205.557.557 0 00-.196-.17c-.076-.04-.139-.053-.188-.037-.05.016-.075.053-.075.116 0 .074.038.151.114.231.035.037.077.074.13.113a.7.7 0 01.11.1.125.125 0 01.033.084c0 .026-.01.042-.031.047-.02.006-.05-.003-.09-.025a.303.303 0 01-.1-.083.207.207 0 01-.041-.11l-.149-.08c0 .042.013.09.037.14.023.05.057.097.1.143a.607.607 0 00.15.11c.081.045.148.06.199.047zm10.509 3.916c.024.05.058.098.101.143a.613.613 0 00.149.11c.082.044.148.06.199.047.051-.013.077-.052.077-.117a.275.275 0 00-.025-.113.463.463 0 00-.076-.11 1.006 1.006 0 00-.14-.124.774.774 0 01-.12-.106.115.115 0 01-.03-.073c0-.03.012-.044.033-.05.021-.005.048 0 .082.019.035.019.065.045.086.078a.172.172 0 01.033.093l.152.082a.35.35 0 00-.075-.205.573.573 0 00-.195-.17c-.077-.04-.139-.053-.189-.037-.05.016-.075.055-.075.116 0 .074.038.151.114.231a.997.997 0 00.13.114.69.69 0 01.111.1.127.127 0 01.032.083c0 .026-.01.043-.03.047-.022.005-.052-.002-.093-.024a.29.29 0 01-.098-.084.193.193 0 01-.041-.111l-.148-.08c0 .044.012.092.036.14zm-8.023-4.183l.134.072-.228-.486.223-.24-.135-.072-.152.183-.148-.343-.134-.072.22.476-.23.242.136.072.158-.185.156.353zm-9.751-5.298a.55.55 0 00.22.216.27.27 0 00.13.036c.041 0 .075-.01.1-.035a.143.143 0 00.04-.098l-.11-.058c-.004.038-.02.062-.052.072-.031.01-.066.004-.108-.018a.324.324 0 01-.138-.142.455.455 0 01-.047-.216v-.024c0-.086.016-.142.048-.17.033-.028.078-.026.138.006.044.023.08.058.11.104a.295.295 0 01.05.141l.11.058a.52.52 0 00-.27-.406c-.062-.033-.116-.046-.161-.04a.141.141 0 00-.105.071.345.345 0 00-.036.17v.02a.61.61 0 00.081.313zm12.52 6.415v.023c0 .107.027.208.085.303a.581.581 0 00.225.217c.113.06.199.06.256-.002l-.07-.098a.133.133 0 01-.076.032.209.209 0 01-.105-.03.364.364 0 01-.142-.141.425.425 0 01-.057-.204l.459.246v-.052a.61.61 0 00-.073-.305.502.502 0 00-.204-.203.244.244 0 00-.152-.032.153.153 0 00-.107.074.334.334 0 00-.039.172zm-3.29-1.72v-.052a.61.61 0 00-.072-.305.498.498 0 00-.205-.203.24.24 0 00-.15-.032.149.149 0 00-.109.074.33.33 0 00-.038.172v.023c0 .107.027.207.084.303a.578.578 0 00.225.216c.113.06.2.06.256-.001l-.07-.098a.134.134 0 01-.075.032.209.209 0 01-.105-.03.369.369 0 01-.142-.141.424.424 0 01-.058-.204l.46.245zm-4.784-2.574c0 .107.03.209.087.305a.578.578 0 00.224.216c.113.06.198.059.257-.002l-.073-.099a.129.129 0 01-.073.033.212.212 0 01-.105-.03.366.366 0 01-.142-.141.425.425 0 01-.058-.204l.46.246v-.052a.611.611 0 00-.073-.305.505.505 0 00-.206-.203.24.24 0 00-.15-.032.147.147 0 00-.108.075.331.331 0 00-.04.17v.023zm7.056 4.03a.58.58 0 00.224.217c.114.06.2.06.256-.002l-.07-.098a.134.134 0 01-.075.032.202.202 0 01-.103-.03.36.36 0 01-.143-.14.42.42 0 01-.059-.205l.46.246v-.05a.624.624 0 00-.072-.306.506.506 0 00-.206-.204.239.239 0 00-.15-.032.153.153 0 00-.109.075.332.332 0 00-.039.171v.023c0 .107.028.208.086.303zm8.63 4.697v-.01a.504.504 0 01-.025-.169v-.326a.38.38 0 00-.072-.218.532.532 0 00-.19-.166.36.36 0 00-.142-.046.135.135 0 00-.1.027.116.116 0 00-.038.092l.153.081c0-.028.011-.046.033-.053.022-.006.05-.001.086.017.04.022.07.05.089.083a.2.2 0 01.03.106v.047l-.094-.05c-.1-.054-.177-.074-.23-.062-.054.013-.081.058-.082.135 0 .061.021.124.063.187a.457.457 0 00.168.151c.07.037.129.042.179.016.004.032.01.058.016.075l.156.083zM43.3 63.598v-.012a.499.499 0 01-.025-.169l.001-.325a.392.392 0 00-.071-.218.54.54 0 00-.19-.166.387.387 0 00-.142-.047.154.154 0 00-.102.027.119.119 0 00-.037.092l.152.082c0-.03.012-.046.035-.051.02-.009.05-.003.084.016.04.021.07.05.09.082.019.032.029.067.029.105v.048l-.094-.05c-.1-.053-.177-.075-.23-.061-.054.012-.081.056-.081.134 0 .06.02.123.064.188a.457.457 0 00.167.15c.069.038.128.043.178.015.004.034.01.06.017.077l.155.083zM35.995 58a.447.447 0 00.166.15c.07.038.13.043.178.016a.538.538 0 00.017.075l.156.083v-.01a.505.505 0 01-.025-.169v-.326a.385.385 0 00-.07-.218.54.54 0 00-.191-.166.357.357 0 00-.142-.046c-.042-.003-.076.006-.1.028-.026.021-.039.05-.039.09l.153.082c0-.028.011-.046.034-.052.021-.007.051-.002.085.017.04.022.07.05.09.083a.2.2 0 01.028.105v.047l-.093-.05c-.1-.053-.177-.074-.23-.062-.055.013-.082.058-.082.135a.33.33 0 00.065.188zm.11 1.75v-.013a.498.498 0 01-.026-.168l.001-.325a.39.39 0 00-.071-.219.54.54 0 00-.191-.165.388.388 0 00-.141-.047.152.152 0 00-.102.027.117.117 0 00-.037.091l.152.082c0-.028.012-.045.034-.051.022-.008.05-.002.085.017.04.02.07.05.09.083a.201.201 0 01.029.103v.049l-.094-.05c-.099-.053-.177-.075-.23-.062-.054.012-.081.056-.081.135 0 .06.02.122.064.188a.46.46 0 00.166.15c.071.038.13.043.179.014.004.034.011.06.017.077l.155.083zm21.588 11.542v-.012a.494.494 0 01-.025-.169v-.325a.388.388 0 00-.072-.22.529.529 0 00-.332-.211.15.15 0 00-.1.027.118.118 0 00-.038.092l.153.082c0-.029.011-.046.032-.052.023-.008.051-.001.087.017a.22.22 0 01.089.082c.02.032.03.068.029.105v.048l-.093-.05c-.1-.053-.177-.075-.231-.061-.054.012-.08.056-.081.134 0 .06.021.123.063.188a.466.466 0 00.167.15c.07.038.13.043.18.015a.32.32 0 00.016.077l.156.083zm-16.89-9.03v-.012a.498.498 0 01-.024-.168v-.325a.395.395 0 00-.072-.22.529.529 0 00-.332-.212.144.144 0 00-.1.027.119.119 0 00-.038.092l.153.081c0-.028.01-.045.032-.051.023-.008.051-.002.085.016.041.023.07.05.09.083.02.032.03.068.03.105v.048l-.094-.05c-.1-.053-.176-.075-.23-.061-.054.012-.08.056-.08.134-.001.06.02.123.062.188a.461.461 0 00.167.15c.07.038.13.043.178.014.006.035.011.06.018.078l.155.083zm14.392 7.694v-.012a.496.496 0 01-.025-.168v-.325a.388.388 0 00-.071-.219.534.534 0 00-.332-.212.146.146 0 00-.1.028.113.113 0 00-.039.09l.153.082c0-.029.011-.045.034-.051.023-.008.05-.001.085.017.04.022.07.05.09.083.02.031.03.066.03.104v.048l-.096-.05c-.098-.053-.176-.075-.23-.062-.054.012-.08.056-.081.135 0 .06.021.122.065.188a.462.462 0 00.166.15c.07.038.13.043.178.014.006.035.012.06.017.077l.155.083zM33.606 58.415v-.012a.5.5 0 01-.025-.168l.001-.325a.386.386 0 00-.072-.22.53.53 0 00-.333-.212.145.145 0 00-.1.028.118.118 0 00-.037.092l.152.081c0-.029.01-.046.033-.052.023-.007.051-.001.086.018a.22.22 0 01.09.082c.019.031.029.067.029.105v.048l-.094-.05c-.1-.054-.176-.075-.23-.062-.054.012-.081.057-.081.135 0 .06.02.122.063.187a.469.469 0 00.166.15c.071.039.13.043.179.015.005.034.011.06.018.077l.155.083zm16.89 9.03v-.012a.492.492 0 01-.025-.168v-.325a.385.385 0 00-.072-.22.53.53 0 00-.19-.164.38.38 0 00-.14-.047.147.147 0 00-.103.027.118.118 0 00-.037.091l.153.082c0-.029.011-.045.032-.052.023-.007.051-.001.087.018.04.021.069.049.089.082.02.031.029.067.029.104v.049l-.093-.05c-.1-.054-.177-.075-.231-.062-.054.012-.08.056-.081.135 0 .06.02.122.065.188a.45.45 0 00.166.15c.07.038.129.042.178.015.004.034.01.06.017.076l.156.083zM48 66.11V66.1a.466.466 0 01-.026-.17v-.324a.38.38 0 00-.071-.22.53.53 0 00-.332-.212c-.043-.001-.076.008-.1.028-.026.02-.037.053-.037.092l.15.08c0-.028.012-.045.035-.05.022-.008.05-.002.084.016.041.022.071.05.091.083.02.032.03.067.03.105l-.001.048-.095-.05c-.099-.054-.176-.076-.23-.062-.054.012-.081.056-.081.134 0 .06.022.123.064.188a.465.465 0 00.167.151c.07.038.13.042.178.014.006.034.011.06.018.077l.156.083zm10.375 3.703c0 .061.023.125.065.188a.451.451 0 00.166.15c.07.039.13.043.179.016a.369.369 0 00.018.076l.155.083v-.01a.481.481 0 01-.026-.17v-.326a.388.388 0 00-.07-.217.54.54 0 00-.191-.167.36.36 0 00-.142-.045c-.042-.003-.076.006-.1.027-.026.021-.037.051-.037.092l.15.08c0-.028.012-.046.035-.052.023-.006.05-.001.085.017.041.022.07.05.09.083.02.033.03.068.03.106v.047l-.095-.051c-.1-.053-.177-.073-.23-.062-.055.014-.082.058-.082.135zM33.643 56.792l.002-.602.139.074v-.12l-.139-.074v-.063c0-.08.038-.101.11-.062a.35.35 0 01.058.037l.004-.126a.562.562 0 00-.084-.056c-.077-.04-.135-.05-.176-.029-.042.021-.064.072-.064.151v.066l-.103-.055v.12l.103.056-.002.601.152.082zm4.692 2.2v-.066a.62.62 0 00-.074-.307.522.522 0 00-.214-.21.268.268 0 00-.158-.036.152.152 0 00-.111.074.344.344 0 00-.039.173v.02a.61.61 0 00.323.528c.056.03.107.045.154.047.045 0 .08-.015.108-.043l-.082-.128c-.044.037-.1.037-.17 0a.326.326 0 01-.124-.118.389.389 0 01-.056-.172l.443.238zm-3.488-1.543c.057.03.108.045.153.047a.147.147 0 00.109-.043l-.082-.128c-.044.037-.1.037-.171-.001a.33.33 0 01-.124-.117.367.367 0 01-.055-.171l.444.237v-.066a.61.61 0 00-.076-.307.52.52 0 00-.213-.21.261.261 0 00-.158-.036.144.144 0 00-.11.074.326.326 0 00-.04.173v.02c-.001.106.028.209.089.306.06.097.138.17.234.222zm1.004-1.997v.02c0 .108.03.21.09.307.059.096.138.172.234.223.056.03.107.045.153.046a.141.141 0 00.109-.043l-.082-.126c-.044.036-.1.036-.171-.002a.336.336 0 01-.124-.119.37.37 0 01-.055-.17l.444.237v-.066a.612.612 0 00-.076-.307.525.525 0 00-.213-.208.26.26 0 00-.158-.038.146.146 0 00-.11.074.323.323 0 00-.04.172zm4.25 4.44v-.01a.629.629 0 00-.085-.317.572.572 0 00-.224-.222.278.278 0 00-.16-.04.14.14 0 00-.109.074.314.314 0 00-.04.17v.008a.61.61 0 00.086.316c.056.099.13.172.222.221.061.033.115.046.161.04a.134.134 0 00.11-.073.321.321 0 00.038-.167zm7.264 3.868v.01a.623.623 0 00.308.536c.06.032.115.047.162.04a.139.139 0 00.11-.073.324.324 0 00.037-.168v-.009a.63.63 0 00-.084-.317.564.564 0 00-.224-.223.278.278 0 00-.16-.038.143.143 0 00-.11.072.334.334 0 00-.04.17zm7.474 3.997v.008a.61.61 0 00.085.316c.057.1.131.172.223.221.061.033.115.046.163.04a.138.138 0 00.108-.073.321.321 0 00.039-.167v-.01a.628.628 0 00-.084-.317.574.574 0 00-.225-.222.277.277 0 00-.16-.039.14.14 0 00-.109.073.315.315 0 00-.04.17zM32.765 56.235a.573.573 0 00.228.223.302.302 0 00.167.044.15.15 0 00.11-.072.328.328 0 00.04-.17v-.038a.619.619 0 00-.316-.514.298.298 0 00-.164-.04.137.137 0 00-.11.071.315.315 0 00-.04.17v.007c0 .113.027.22.085.319zm19.298 9.38l-.003 1.023.117.063.002-.514a.098.098 0 01.067-.049c.028-.006.06.001.099.021.045.024.08.055.101.092a.247.247 0 01.034.134l-.002.477.116.062.002-.477c-.001-.172-.073-.298-.216-.374-.083-.045-.15-.045-.2-.007v-.39l-.117-.062zm5.622 3.005l-.003 1.024.151.081.002-.516c.031-.04.076-.045.137-.012.04.02.07.047.09.078a.218.218 0 01.03.123l-.001.465.152.081.002-.47c-.002-.178-.076-.306-.22-.383-.076-.04-.139-.042-.19-.008l.002-.382-.152-.08zm-2.08-1.112l-.003 1.024.116.062v-.253l.073-.042.235.46.137.073-.294-.577.265-.161-.141-.076-.211.125-.063.047.002-.62-.116-.062zm4.708 3.543l.002-.47c-.003-.178-.074-.305-.22-.383-.076-.041-.139-.042-.188-.007l.001-.382-.153-.082-.003 1.024.153.082.001-.516c.03-.042.075-.046.136-.013.04.02.07.047.09.078.02.032.03.073.03.123l-.002.464.153.082zm-3.762-.368l.002-.473c-.003-.177-.075-.303-.22-.38-.076-.041-.138-.045-.188-.01v-.381l-.152-.082-.003 1.026.153.081.001-.516c.03-.04.076-.047.136-.014.04.02.07.047.09.08.02.031.03.071.03.12l-.002.467.153.082zm-9.266-4.955l.001-.472c-.002-.178-.075-.304-.22-.381-.076-.04-.138-.044-.189-.01l.001-.381-.151-.081-.003 1.025.151.081.002-.516c.03-.04.076-.046.137-.013a.23.23 0 01.09.078c.02.033.03.073.03.122l-.002.466.153.082zm-5.126-2.74l.001-.473a.401.401 0 00-.22-.38c-.074-.04-.138-.045-.188-.01l.001-.381-.152-.082-.003 1.025.152.082.002-.516c.03-.04.075-.047.137-.014.038.02.068.047.089.08.02.031.03.071.03.12l-.002.467.153.081zm-7.197-3.848l.002-.472c-.001-.177-.074-.303-.218-.38-.077-.041-.14-.045-.19-.01l.001-.382-.152-.081-.004 1.025.153.081.002-.515c.03-.042.075-.047.137-.014.038.02.069.047.089.079.02.032.03.072.03.121l-.002.466.152.082zm-2.07-1.107l.002-.472c-.002-.177-.074-.303-.22-.38-.076-.042-.139-.045-.188-.01l.001-.382-.153-.081-.003 1.025.153.082.002-.516c.03-.041.075-.047.136-.015.04.022.069.048.09.08.02.032.03.072.029.122l-.001.466.152.081zm16.463 8.802l.001-.472c0-.177-.074-.303-.22-.381-.076-.041-.138-.044-.188-.009l.001-.382-.152-.081-.003 1.025.153.082V66.1c.03-.041.076-.047.137-.015.04.021.07.048.09.08.02.032.03.072.03.121l-.002.466.153.082zm-9.266-4.954l.001-.472c-.002-.178-.076-.304-.22-.381-.076-.041-.138-.044-.188-.01l.001-.381-.152-.082-.003 1.026.152.081.002-.515c.03-.042.075-.048.136-.015.04.021.069.048.09.08.02.031.03.071.03.121l-.002.466.153.082zm14.392 7.695l.001-.472c-.002-.178-.075-.304-.22-.381-.075-.041-.138-.044-.189-.01l.002-.382-.153-.081-.003 1.025.152.082.002-.516c.031-.04.076-.046.137-.014.04.021.07.048.09.08a.215.215 0 01.03.121l-.002.466.153.082zm-7.453-5.515l.275-.689-.124-.066-.16.456-.168-.632-.127-.068.241.845-.027.059c-.014.037-.031.059-.054.064-.021.005-.052-.004-.092-.025l-.031-.018v.1l.043.032.022.013c.091.049.16.025.202-.071zm12.776 8.287c.054-.03.08-.096.081-.193a.55.55 0 00-.071-.278.49.49 0 00-.202-.196.257.257 0 00-.144-.039l.026-.219.363.194v-.14l-.49-.262-.05.464.12.097a.11.11 0 01.065-.012.295.295 0 01.189.14c.028.05.042.105.042.165 0 .06-.014.103-.039.124-.027.021-.064.02-.11-.005a.293.293 0 01-.102-.092.303.303 0 01-.046-.133l-.149-.08a.49.49 0 00.09.249c.055.079.124.141.208.186.093.05.166.059.219.03zm-7.86-4.538l.001-.168a.751.751 0 00-.074-.346.524.524 0 00-.223-.221c-.102-.055-.177-.06-.225-.015-.05.043-.075.134-.076.274v.168c0 .137.026.252.077.349.05.095.124.17.221.222.102.055.175.058.225.014.05-.045.074-.137.075-.277zm10.959 4.216v-.167a.771.771 0 00-.073-.347.523.523 0 00-.224-.221c-.101-.055-.176-.059-.226-.016-.048.045-.074.135-.074.275v.168a.753.753 0 00.076.349c.05.095.124.17.222.222.1.053.175.06.224.015.05-.046.075-.138.075-.278zm-18.155-8.064l.001-.168a.736.736 0 00-.074-.345.526.526 0 00-.223-.222c-.102-.054-.177-.06-.225-.015-.05.043-.075.135-.076.275v.168c0 .136.027.252.076.348a.52.52 0 00.223.223c.1.054.174.057.224.013.05-.044.074-.137.074-.277zm14.393 7.696v-.169a.768.768 0 00-.074-.345.527.527 0 00-.224-.223c-.1-.053-.176-.059-.225-.014-.048.043-.074.135-.074.275v.168c0 .136.025.252.076.348.05.096.124.17.222.223.1.053.175.057.224.013.05-.044.075-.137.075-.276zM37.554 60.116v-.169a.753.753 0 00-.075-.346.52.52 0 00-.223-.221c-.1-.054-.177-.06-.225-.015-.05.043-.074.135-.075.275v.168a.766.766 0 00.075.348c.05.095.124.17.223.223.1.053.175.058.224.012.05-.044.075-.135.076-.275zm-5.998-5.163l-.003 1 .152.081.002-.343a.45.45 0 00.179.174c.08.043.144.044.192.004.047-.041.071-.119.072-.23v-.009a.653.653 0 00-.07-.311.46.46 0 00-.195-.204c-.076-.04-.137-.043-.182-.01l-.006-.077-.141-.075zm13.829 9.694c.056-.02.085-.075.085-.162a.352.352 0 00-.04-.16.47.47 0 00-.113-.148.135.135 0 00.102-.033.137.137 0 00.04-.102.428.428 0 00-.078-.244.583.583 0 00-.214-.189.336.336 0 00-.15-.045.127.127 0 00-.105.04c-.025.027-.037.066-.037.116l.151.08c0-.04.014-.065.04-.076.027-.011.061-.005.102.017a.261.261 0 01.104.094c.023.037.034.08.034.126 0 .048-.014.076-.041.088-.029.01-.065.002-.112-.021l-.093-.05v.128l.09.048c.056.03.097.066.127.11.028.043.042.09.042.14 0 .052-.015.082-.041.094-.027.013-.066.006-.112-.019a.294.294 0 01-.11-.099.233.233 0 01-.04-.125l-.152-.082c0 .083.028.164.084.244.055.08.127.143.216.19.09.05.165.064.22.04zm-1.38-.695l.002-.699-.137-.073-.007.068a.437.437 0 00-.182-.183c-.082-.044-.147-.046-.197-.004-.05.04-.075.116-.075.227a.66.66 0 00.075.32.47.47 0 00.194.205c.073.04.133.046.176.016v.048c0 .057-.016.091-.044.106-.03.013-.07.007-.12-.02a.44.44 0 01-.174-.182l-.072.06c.025.047.06.095.108.143a.596.596 0 00.146.11c.094.052.168.064.225.038.055-.024.082-.085.082-.18zm7.197 3.848l.002-.7-.137-.073-.008.069a.439.439 0 00-.182-.184c-.082-.043-.147-.045-.196-.004-.05.04-.076.117-.076.228 0 .119.025.226.074.32a.48.48 0 00.195.205c.073.039.131.044.175.015v.048c0 .057-.014.092-.044.106-.029.014-.07.007-.12-.02a.44.44 0 01-.173-.181l-.072.059c.026.048.06.095.109.144a.614.614 0 00.145.11c.093.05.168.063.225.038.055-.025.082-.086.083-.18zm7.196 3.847l.002-.699-.137-.073-.007.068a.44.44 0 00-.182-.183c-.082-.044-.149-.046-.198-.005-.05.04-.074.117-.075.229 0 .118.025.225.074.32.051.094.116.162.195.204.073.04.132.045.175.016v.048c0 .057-.014.091-.044.105-.028.014-.07.007-.119-.02a.44.44 0 01-.173-.18l-.072.058c.023.048.06.096.108.144a.593.593 0 00.145.111c.094.05.169.063.224.037.057-.024.084-.085.084-.18zm3.762.37l.002-.7-.137-.074-.007.07a.437.437 0 00-.182-.184c-.082-.044-.147-.044-.197-.005-.051.04-.075.116-.076.23 0 .118.025.225.074.317.051.095.116.163.195.205.074.04.132.045.175.016v.05c0 .055-.014.091-.044.104-.028.015-.07.006-.119-.02a.43.43 0 01-.173-.181l-.072.059c.025.05.06.097.108.144a.608.608 0 00.145.11c.094.05.169.063.224.039.057-.026.084-.085.084-.18zM36.81 60.106l.003-.7-.139-.074-.007.069a.44.44 0 00-.182-.184c-.082-.043-.147-.045-.197-.004-.05.04-.075.116-.075.228 0 .119.024.225.075.32a.47.47 0 00.193.204c.074.04.133.046.177.017v.048c0 .057-.016.09-.044.106-.03.012-.07.006-.12-.02a.443.443 0 01-.174-.182l-.072.059a.6.6 0 00.108.144.612.612 0 00.145.11c.095.051.17.064.226.038.055-.025.083-.085.084-.18zm-1.589-5.654l-.003 1.025.153.082v-.236l.069-.038.2.417.176.095-.277-.57.252-.166-.182-.098-.189.124-.048.037.002-.59-.153-.082zm3.079 6.472v-.129l-.424-.227.224-.134c.06-.036.1-.075.128-.115a.236.236 0 00.039-.13.414.414 0 00-.076-.239.592.592 0 00-.21-.183.349.349 0 00-.163-.048.136.136 0 00-.11.053.227.227 0 00-.038.14l.153.081c0-.056.014-.092.041-.11.027-.018.065-.012.115.014a.243.243 0 01.099.095.25.25 0 01.036.133.136.136 0 01-.029.088.323.323 0 01-.093.081l-.305.191v.111l.613.328zm14.409 7.487v-.13l-.115-.06.002-.626-.156-.084-.397.447.004.1.396.21v.218l.15.08.001-.216.115.061zm-8.812-6.137l.163-.46.164.634.093.05.2-.616-.116-.061-.132.482-.16-.639-.094-.05-.158.458-.133-.613-.116-.063.196.828.093.05zm-11.664-5.182v-.105l-.13-.07.05-.252-.105-.056-.05.252-.14-.076.05-.251-.105-.056-.05.252-.171-.092v.105l.152.082-.037.19-.164-.088v.105l.145.078-.049.248.105.056.049-.248.14.075-.048.248.105.056.048-.248.157.084v-.105l-.138-.074.037-.19.149.08zm24.746 12.176l.106.057.048-.247.14.075-.047.247.104.056.048-.247.158.084v-.106l-.138-.074.036-.19.15.08v-.106l-.13-.07.05-.252-.106-.056-.049.253-.14-.076.048-.252-.104-.056-.05.253-.172-.093v.105l.153.082-.036.19-.164-.087v.106l.144.077-.05.247zm-17.55-8.329v-.105l-.13-.07.05-.252-.105-.056-.05.253-.14-.076.05-.252-.106-.056-.05.252-.17-.091v.105l.15.08-.035.19-.164-.087v.105l.144.078-.048.248.105.056.049-.248.14.075-.048.249.105.056.047-.25.159.085v-.105l-.139-.074.038-.19.148.08zm14.393 7.695v-.105l-.13-.07.049-.252-.105-.056-.049.253-.14-.076.048-.252-.104-.056-.05.252-.172-.092v.105l.152.082-.036.19-.163-.088v.106l.143.077-.048.248.105.056.05-.248.14.075-.05.248.106.057.048-.249.158.085v-.106l-.138-.074.036-.19.15.08zm-7.197-3.847v-.105l-.13-.07.05-.252-.105-.056-.049.252-.141-.075.049-.253-.105-.056-.049.253-.172-.093v.106l.152.081-.036.19-.164-.087v.105l.144.077-.047.249.104.056.049-.248.14.075-.047.248.104.056.048-.248.158.084v-.105l-.138-.074.036-.19.15.08zm-9.018-5.876l.001-.474a.45.45 0 00-.056-.226.405.405 0 00-.166-.155c-.09-.047-.159-.047-.208 0a.382.382 0 00-.186-.21c-.082-.044-.149-.05-.196-.016l-.004-.078-.144-.077-.002.722.152.082.002-.522c.026-.04.068-.044.13-.01a.21.21 0 01.121.191v.475l.152.082.001-.495a.083.083 0 01.046-.054c.022-.007.05-.002.085.017a.24.24 0 01.094.082c.018.03.027.07.027.115l-.002.47.153.08zm1.532.458l.317-.442-.137-.073-.238.361-.236-.615-.139-.074.313.778v.361l.12.065v-.361zm-7.377-6.712l.274.628-.284.339.185.099.198-.251.195.461.185.099-.28-.641.276-.334-.182-.098-.193.248-.192-.453-.182-.097zm.813.434l.274.628-.284.34.185.098.197-.25.195.46.186.1-.281-.642.277-.334-.182-.097-.194.247-.191-.453-.182-.097zm.812.434l.274.629-.284.339.185.099.198-.252.195.462.185.099-.28-.642.278-.333-.184-.098-.193.248-.192-.453-.182-.098zm-3.503-3.057l38.523 20.597-.025 8.17L29.86 58.64l.025-8.17z" fill="#F9F9FA"/><path fill-rule="evenodd" clip-rule="evenodd" d="M50.916 67.066c.061.032.106.085.134.154v.318c-.03.04-.076.044-.136.011a.276.276 0 01-.116-.123.432.432 0 01-.042-.194c0-.083.015-.137.043-.166.028-.027.067-.027.117 0zM50.276 65.05a.28.28 0 01.114.113c.03.05.045.106.048.171v.01l-.34-.182c.008-.061.028-.101.06-.12.032-.02.071-.016.118.008zM46.194 64.767l.048-.191.182.075-.047.192-.183-.076z" fill="#F9F9FA"/><path fill-rule="evenodd" clip-rule="evenodd" d="M46.377 64.843l-.183-.076.048-.191.182.075-.047.192z" fill="#135687"/><path fill-rule="evenodd" clip-rule="evenodd" d="M42.92 63.083c.032-.005.08.008.145.04l.094.047v.145c-.015.022-.038.031-.069.034a.247.247 0 01-.187-.099.17.17 0 01-.032-.097c0-.04.017-.064.05-.07z" fill="#F9F9FA"/><path fill-rule="evenodd" clip-rule="evenodd" d="M32.511 53.057l-.277.334.282.64-.186-.098-.195-.461-.198.25-.185-.098.284-.339-.274-.629.183.098.19.453.194-.248.182.098zM33.733 55.8a.586.586 0 01.085.056l-.005.126a.356.356 0 00-.058-.037c-.072-.039-.11-.018-.11.062v.063l.139.074v.12l-.139-.074-.002.602-.152-.082.002-.601-.104-.055v-.12l.104.054v-.066c0-.08.022-.13.064-.15.041-.022.1-.012.176.028z" fill="#135687"/><path fill-rule="evenodd" clip-rule="evenodd" d="M53.199 66.82v-.01a.37.37 0 00-.046-.17.291.291 0 00-.116-.114c-.047-.025-.086-.028-.118-.008-.032.018-.052.059-.06.12l.34.181zm.117.113v.051l-.461-.246c.001.072.02.14.059.205.036.063.085.11.142.14.041.023.075.032.104.03a.133.133 0 00.075-.032l.07.098c-.057.062-.142.063-.256.002a.579.579 0 01-.224-.217.573.573 0 01-.086-.303v-.022c0-.073.013-.13.04-.173a.153.153 0 01.108-.073.24.24 0 01.15.031.509.509 0 01.206.204c.048.087.073.19.073.305z" fill="#26272C"/><path fill-rule="evenodd" clip-rule="evenodd" d="M32.487 56.79l-.001.381c.05-.035.112-.032.188.009.146.078.217.203.22.381l-.002.472-.152-.081.001-.467c0-.05-.01-.089-.03-.12a.237.237 0 00-.09-.08c-.06-.033-.106-.027-.136.014l-.001.516-.153-.082.003-1.025.153.081zM33.997 57.887c.08.043.147.1.196.17.05.07.075.138.074.205l-.152-.081a.166.166 0 00-.032-.096.24.24 0 00-.087-.076c-.034-.018-.06-.025-.082-.02-.021.005-.031.023-.031.05 0 .025.01.05.03.074.02.024.059.059.118.104.06.047.106.088.141.127.034.038.06.074.075.11a.262.262 0 01.025.112c0 .065-.026.104-.077.117-.05.012-.117-.003-.2-.046a.603.603 0 01-.249-.254.327.327 0 01-.035-.14l.147.079c.003.04.016.076.04.11a.301.301 0 00.101.084c.04.022.07.03.092.025.02-.006.031-.02.031-.046a.128.128 0 00-.033-.084.724.724 0 00-.112-.1 1.167 1.167 0 01-.13-.114c-.075-.079-.113-.157-.113-.23 0-.063.025-.101.075-.117.05-.016.111-.004.188.037zM35.31 58.427v.175l.12.065-.001.12-.12-.064-.001.403c0 .027.005.05.015.068.01.017.028.033.055.048a.277.277 0 00.054.02v.127a.478.478 0 01-.1-.038.314.314 0 01-.175-.3v-.409l-.11-.06v-.12l.111.06v-.176l.152.08zM36.658 59.843l.002-.317a.303.303 0 00-.136-.156c-.05-.027-.09-.026-.117 0-.029.03-.042.084-.042.167 0 .072.012.136.04.193a.275.275 0 00.116.124c.06.032.108.029.137-.011zm.016-.51l.139.073-.003.7c0 .094-.028.154-.083.179-.056.026-.13.013-.225-.037a.608.608 0 01-.146-.111.6.6 0 01-.108-.144l.072-.06a.44.44 0 00.173.182c.051.027.09.033.12.02.029-.014.045-.048.045-.105v-.048c-.044.029-.103.023-.177-.016a.47.47 0 01-.193-.205.664.664 0 01-.075-.32c0-.111.026-.188.075-.228.05-.04.115-.04.197.004a.44.44 0 01.182.184l.007-.069zM37.4 60.071l.002-.22a.587.587 0 00-.035-.218.245.245 0 00-.112-.123c-.05-.027-.086-.027-.11.001-.023.027-.036.083-.037.168l-.001.22c0 .091.01.165.035.222.024.058.062.1.113.128.048.026.084.024.108-.004.023-.03.036-.086.038-.174zm.079-.47c.049.094.074.21.075.346v.169c0 .14-.027.231-.076.275-.049.045-.124.041-.224-.012a.518.518 0 01-.223-.223.764.764 0 01-.075-.348v-.168c0-.14.025-.232.075-.275.048-.045.124-.04.225.014.1.054.173.128.223.222zM37.98 59.767a.59.59 0 01.211.184c.05.075.076.153.076.237a.238.238 0 01-.04.132.398.398 0 01-.127.114l-.224.134.424.227v.13l-.613-.329v-.11l.305-.192a.323.323 0 00.093-.08.137.137 0 00.03-.09.248.248 0 00-.038-.132.24.24 0 00-.098-.095c-.05-.026-.088-.032-.115-.013-.027.017-.041.053-.041.11l-.153-.083c0-.058.013-.105.039-.139a.136.136 0 01.11-.053c.046 0 .1.016.162.048zM41.193 61.735c.08.043.147.1.196.17.05.068.075.137.075.205l-.153-.082a.165.165 0 00-.032-.095.242.242 0 00-.087-.077c-.033-.018-.06-.025-.081-.02-.022.006-.032.023-.032.05 0 .026.01.05.028.074.02.024.06.059.12.105.06.047.106.088.14.126.035.038.06.074.076.11a.262.262 0 01.025.112c0 .065-.025.104-.077.118-.05.011-.117-.003-.199-.047a.598.598 0 01-.25-.254.324.324 0 01-.035-.139l.147.078c.003.04.016.077.041.111a.3.3 0 00.1.084c.04.021.071.03.09.024.022-.005.033-.02.033-.046a.128.128 0 00-.033-.084.724.724 0 00-.112-.1 1.12 1.12 0 01-.13-.113c-.076-.08-.114-.158-.113-.231 0-.064.025-.1.075-.117.05-.016.112-.003.188.038zM45.167 63.61c.09.048.162.11.215.188.05.075.077.157.076.244a.137.137 0 01-.04.102.135.135 0 01-.101.033c.05.045.089.094.114.147.027.054.04.107.039.161 0 .087-.029.141-.085.162-.056.024-.13.009-.221-.04a.604.604 0 01-.216-.19.416.416 0 01-.084-.244l.152.082c0 .042.014.084.041.126a.29.29 0 00.109.098c.046.025.085.032.111.02.027-.014.042-.043.042-.094a.256.256 0 00-.042-.142.346.346 0 00-.127-.109l-.09-.048v-.128l.093.05c.047.023.083.03.112.02.027-.01.041-.04.041-.087a.24.24 0 00-.033-.127.26.26 0 00-.105-.093c-.041-.022-.075-.028-.102-.017-.025.01-.04.036-.04.077l-.15-.081c0-.05.01-.089.036-.116a.127.127 0 01.105-.04c.044 0 .093.015.15.045zM51.05 67.537v-.317a.294.294 0 00-.134-.155c-.05-.027-.089-.026-.117 0-.028.03-.043.084-.043.166 0 .072.014.137.042.194a.275.275 0 00.116.124c.06.032.106.028.136-.012zm.017-.51l.137.074-.002.699c0 .094-.028.155-.083.18-.057.025-.132.012-.225-.037a.61.61 0 01-.145-.111.613.613 0 01-.109-.144l.072-.06a.44.44 0 00.174.182c.05.027.09.034.119.02.03-.014.044-.049.044-.106v-.048c-.044.03-.102.024-.175-.015a.483.483 0 01-.195-.205.679.679 0 01-.074-.32c0-.111.026-.188.076-.228.05-.04.114-.04.196.004a.44.44 0 01.183.184l.007-.069zM54.074 68.331v.382c.05-.034.113-.031.189.01.144.077.217.203.22.38l-.002.473-.153-.082.002-.466c0-.05-.01-.09-.03-.122a.229.229 0 00-.09-.08c-.06-.031-.106-.026-.137.015l-.002.516-.152-.082.003-1.025.152.081zM55.585 69.43c.08.043.147.1.197.17.049.068.074.137.074.205l-.153-.082a.172.172 0 00-.032-.095.244.244 0 00-.086-.076c-.034-.019-.06-.025-.082-.02-.021.005-.033.022-.033.049 0 .025.01.05.03.074.02.024.06.059.12.105.06.047.106.088.14.126.033.037.059.074.076.11a.26.26 0 01.023.112c0 .064-.024.104-.075.118-.051.011-.117-.003-.2-.047a.556.556 0 01-.25-.254.329.329 0 01-.036-.14l.149.08a.198.198 0 00.04.11.299.299 0 00.1.083c.04.022.07.03.091.025.022-.005.031-.02.032-.046 0-.03-.01-.057-.033-.084a.719.719 0 00-.111-.1 1.172 1.172 0 01-.13-.113c-.077-.08-.114-.158-.114-.231 0-.064.026-.1.075-.117.048-.016.112-.003.188.038zM58.988 71.613v-.22a.56.56 0 00-.034-.219.238.238 0 00-.111-.122c-.05-.027-.087-.027-.11.002-.023.026-.036.082-.036.168l-.001.22c0 .091.01.165.034.221.024.058.06.1.112.128.05.026.086.025.109-.004.024-.029.035-.086.037-.174zm.08-.47c.047.094.072.21.073.346v.169c0 .14-.025.232-.075.276-.05.044-.124.04-.225-.013a.517.517 0 01-.221-.223.749.749 0 01-.077-.348v-.168c.001-.14.027-.232.075-.275.05-.045.125-.04.225.014s.175.129.224.223z" fill="#135687"/><path fill-rule="evenodd" clip-rule="evenodd" d="M66.634 80.11l-2.869 1.544-32.06-17.12 2.87-1.544 32.06 17.12z" fill="#02ECF1"/><path fill-rule="evenodd" clip-rule="evenodd" d="M52.397 73.193l.74 1.188-.227.12-.74-1.188.227-.12zM60.59 76.54l.226.363-.745.393-.228.12-.745.393-.226-.362.745-.393.228-.12.745-.394z" fill="#26272C"/><path fill-rule="evenodd" clip-rule="evenodd" d="M60.071 77.296l.74 1.187-.227.12-.74-1.187.227-.12z" fill="#26272C"/><path fill-rule="evenodd" clip-rule="evenodd" d="M61.126 78.807l.005-1.891c.001-.232-.176-.516-.394-.633l-1.776-.949c-.22-.118-.398-.023-.398.209l-.006 1.89c0 .233.176.517.396.634l1.775.949c.218.117.397.023.398-.21zm-7.674-4.103l.005-1.89c.001-.233-.176-.517-.395-.634l-1.776-.95c-.218-.116-.396-.022-.397.21l-.006 1.89c0 .233.177.517.395.633l1.775.95c.22.117.398.023.399-.21zm-5.097-6.067l15.41 8.238-.015 4.784-15.41-8.239.015-4.783z" fill="#250F8A"/><path fill-rule="evenodd" clip-rule="evenodd" d="M53.137 74.38l-.74-1.187.745-.393-.226-.362-.745.393-.74-1.187-.228.12.74 1.187-.745.393.226.363.745-.394.74 1.188.228-.12zm-.076-2.2c.22.117.397.401.396.633l-.005 1.891c-.001.232-.18.326-.4.209l-1.774-.95c-.219-.116-.395-.4-.395-.632l.006-1.89c0-.233.179-.327.397-.21l1.775.949z" fill="#A4A6A8"/><path fill-rule="evenodd" clip-rule="evenodd" d="M51.431 71.644l.74 1.187-.228.12-.74-1.187.228-.12z" fill="#26272C"/><path fill-rule="evenodd" clip-rule="evenodd" d="M52.916 72.438l.226.362-.745.394-.227.12-.745.393-.227-.363.745-.393.228-.12.745-.393zM59.105 75.746l.74 1.187-.228.12-.74-1.186.228-.12z" fill="#26272C"/><path fill-rule="evenodd" clip-rule="evenodd" d="M60.811 78.483l-.74-1.187.745-.393-.226-.363-.745.393-.74-1.187-.228.12.74 1.188-.745.393.227.362.744-.393.74 1.187.228-.12zm-.074-2.2c.218.117.395.401.394.633l-.005 1.89c-.001.233-.18.327-.398.21l-1.775-.949c-.22-.117-.397-.401-.396-.634l.006-1.89c0-.232.179-.326.398-.209l1.776.95z" fill="#A4A6A8"/><path fill-rule="evenodd" clip-rule="evenodd" d="M45.24 68.334l.227.363-.745.393-.228.12-.745.393-.226-.362.745-.393.228-.12.745-.394z" fill="#135685"/><path fill-rule="evenodd" clip-rule="evenodd" d="M45.776 70.6l.006-1.89c0-.232-.176-.516-.394-.633l-1.776-.949c-.22-.118-.398-.023-.398.209l-.006 1.89c0 .233.176.517.396.634l1.775.95c.218.116.397.022.397-.21zm-5.125-6.082l7.704 4.119-.015 4.783-7.704-4.119.015-4.783z" fill="#02ECF1"/><path fill-rule="evenodd" clip-rule="evenodd" d="M45.462 70.277l-.74-1.187.745-.393-.226-.363-.745.393-.74-1.187-.228.12.74 1.187-.745.394.226.362.745-.393.74 1.187.228-.12zm-.074-2.2c.218.117.395.4.394.633l-.006 1.89c0 .233-.179.327-.397.21l-1.775-.949c-.22-.117-.397-.401-.396-.634l.006-1.89c0-.232.178-.326.398-.209l1.776.95z" fill="#FEFEFD"/><path fill-rule="evenodd" clip-rule="evenodd" d="M44.722 69.09l-.228.12.74 1.187.228-.12-.74-1.187zM43.756 67.54l.74 1.188-.228.12-.74-1.188.228-.12z" fill="#135685"/><path fill-rule="evenodd" clip-rule="evenodd" d="M29.892 60.128l.226.363-.745.393-.228.12-.745.393-.226-.362.745-.393.227-.12.746-.394z" fill="#26272C"/><path fill-rule="evenodd" clip-rule="evenodd" d="M29.373 60.884l.74 1.187-.228.12-.74-1.187.228-.12z" fill="#26272C"/><path fill-rule="evenodd" clip-rule="evenodd" d="M30.113 62.071l-.74-1.187.744-.393-.226-.362-.744.392-.74-1.187-.228.12.74 1.187-.745.394.226.362.745-.393.74 1.187.228-.12zm-.075-2.2c.219.117.396.401.395.633l-.006 1.89c0 .233-.179.327-.397.21l-1.775-.949c-.22-.117-.397-.401-.396-.633l.005-1.891c.001-.232.18-.326.4-.209l1.774.95z" fill="#FEFEFD"/><path fill-rule="evenodd" clip-rule="evenodd" d="M28.407 59.334l.74 1.187-.228.12-.74-1.187.228-.12z" fill="#26272C"/><path fill-rule="evenodd" clip-rule="evenodd" d="M30.427 62.395l.006-1.891c0-.232-.176-.516-.395-.633l-1.775-.949c-.22-.117-.398-.023-.399.209l-.005 1.89c0 .233.176.517.396.634l1.775.95c.218.116.397.022.397-.21zm-5.186-6.116l7.704 4.12-.014 4.783-7.704-4.119.014-4.784z" fill="#250F8A"/><path fill-rule="evenodd" clip-rule="evenodd" d="M37.048 64.987l.74 1.188-.227.12-.74-1.188.227-.12zM36.082 63.438l.74 1.187-.228.12-.74-1.187.228-.12z" fill="#26272C"/><path fill-rule="evenodd" clip-rule="evenodd" d="M37.788 66.174l-.74-1.187.745-.393-.226-.362-.745.393-.74-1.187-.228.12.74 1.187-.745.393.226.363.745-.394.74 1.188.228-.12zm-.076-2.2c.22.117.397.401.396.634l-.005 1.89c-.001.232-.18.326-.399.209l-1.775-.95c-.219-.116-.396-.4-.395-.632l.006-1.89c0-.233.179-.327.397-.21l1.775.949z" fill="#A4A6A8"/><path fill-rule="evenodd" clip-rule="evenodd" d="M37.567 64.232l.226.362-.745.393-.228.12-.745.394-.226-.363.745-.393.228-.12.745-.393z" fill="#26272C"/><path fill-rule="evenodd" clip-rule="evenodd" d="M38.103 66.498l.005-1.89c.001-.233-.176-.517-.396-.634l-1.775-.95c-.218-.116-.396-.022-.397.21l-.006 1.89c0 .233.176.517.395.634l1.775.949c.22.117.398.023.399-.209zm-5.158-6.1l7.706 4.12-.015 4.784-7.705-4.12.014-4.784z" fill="#250F8A"/></svg>